<?xml version="1.0" standalone="no"?>
<!DOCTYPE svg PUBLIC "-//W3C//DTD SVG 20010904//EN"
 "http://www.w3.org/TR/2001/REC-SVG-20010904/DTD/svg10.dtd">
<svg version="1.0" xmlns="http://www.w3.org/2000/svg"
 width="900.000000pt" height="900.000000pt" viewBox="0 0 900.000000 900.000000"
 preserveAspectRatio="xMidYMid meet">
<metadata>
Created by potrace 1.10, written by Peter Selinger 2001-2011
</metadata>
<g transform="translate(0.000000,900.000000) scale(0.100000,-0.100000)"
fill="#fe6500" stroke="none">
<path d="M1610 6001 c-9 -18 -22 -21 -123 -23 l-112 -3 1 -70 c3 -139 9 -202
23 -218 14 -18 71 -23 87 -8 5 5 46 11 91 13 77 4 84 3 105 -19 24 -26 39
-108 26 -144 -8 -21 -44 -58 -57 -60 -3 0 -44 -6 -91 -13 -59 -9 -89 -10 -98
-3 -10 8 -20 4 -37 -14 -21 -22 -24 -34 -27 -127 -3 -99 -2 -104 21 -121 40
-30 207 -43 217 -17 4 10 21 14 51 13 30 0 50 5 57 15 6 8 23 18 38 21 15 4
30 16 33 27 3 11 39 50 79 86 l73 66 -5 49 c-3 29 0 55 7 63 21 25 26 140 7
176 -9 18 -16 46 -16 62 0 17 -5 28 -14 28 -8 0 -28 24 -44 54 -27 48 -48 67
-125 112 -10 7 -24 17 -30 23 -6 6 -33 11 -59 11 -35 0 -48 4 -48 14 0 24 -18
28 -30 7z"/>
<path d="M7343 6000 c-4 -16 -14 -20 -50 -20 -29 0 -55 -7 -74 -21 -27 -19
-29 -24 -29 -94 0 -65 3 -76 27 -104 l27 -30 88 6 c85 6 90 5 155 -27 76 -36
102 -63 103 -101 0 -14 4 -29 9 -35 16 -16 15 -87 -3 -119 -9 -16 -16 -36 -16
-42 0 -7 -4 -13 -9 -13 -5 0 -19 -11 -32 -25 -23 -23 -30 -25 -135 -25 -73 0
-123 -5 -145 -14 l-33 -14 3 -138 c1 -77 4 -140 5 -141 1 -1 59 -5 128 -9 109
-6 131 -5 152 10 14 9 32 16 39 16 8 0 22 9 32 20 10 11 28 20 39 20 12 0 30
7 40 15 11 8 26 15 33 15 18 0 126 107 119 118 -3 5 1 18 9 28 8 10 15 27 15
36 0 20 39 88 50 88 9 0 10 8 11 152 0 97 -2 110 -25 150 -14 24 -31 54 -36
68 -6 14 -22 34 -35 44 -14 10 -25 26 -25 36 0 20 -28 47 -99 94 -50 34 -58
36 -132 36 -68 0 -80 3 -89 20 -9 16 -21 20 -61 20 -42 0 -52 -3 -56 -20z"/>
<path d="M2803 5973 c-7 -2 -13 -14 -13 -26 0 -23 36 -104 51 -113 5 -3 9 -18
9 -33 0 -16 7 -34 15 -41 8 -7 15 -24 15 -37 0 -14 14 -45 30 -70 17 -24 30
-48 30 -52 0 -5 7 -22 15 -37 8 -16 15 -39 15 -51 0 -12 5 -25 10 -28 6 -3 10
-21 10 -39 0 -20 8 -40 20 -51 11 -10 20 -29 20 -42 0 -13 7 -26 15 -29 10 -4
15 -21 15 -55 0 -27 5 -51 13 -56 15 -10 38 -66 44 -110 6 -36 -22 -82 -49
-83 -20 0 -70 -45 -87 -77 -6 -12 -11 -33 -11 -46 0 -13 -9 -34 -20 -47 -27
-31 -32 -53 -21 -84 l11 -26 144 0 c144 0 145 0 175 -27 16 -16 33 -41 37 -58
4 -16 13 -34 20 -40 7 -5 14 -21 16 -35 2 -16 9 -24 19 -22 9 1 22 -5 29 -13
17 -21 192 -22 209 -1 7 8 20 12 30 9 32 -8 44 20 24 58 -10 19 -21 36 -25 37
-5 2 -8 18 -8 37 0 18 -7 38 -15 45 -10 9 -15 32 -15 77 0 58 -3 68 -29 93
-16 16 -31 36 -34 45 -4 8 -12 15 -18 15 -7 0 -9 10 -6 29 4 21 0 37 -13 54
-11 14 -20 30 -20 36 0 6 -5 11 -11 11 -6 0 -9 9 -6 20 3 11 -7 43 -21 72 -16
33 -27 70 -27 97 0 26 -5 46 -12 49 -7 2 -13 14 -13 27 0 12 -7 25 -15 29 -9
3 -15 18 -15 36 0 20 -5 30 -15 30 -8 0 -15 9 -15 21 0 11 -11 35 -25 53 -14
18 -28 53 -31 79 -4 25 -13 48 -20 51 -8 3 -14 16 -14 28 0 13 -7 36 -15 52
-8 15 -15 38 -15 51 0 12 -7 28 -15 35 -8 7 -15 26 -15 42 0 17 -6 31 -16 35
-13 5 -15 14 -10 44 l6 39 -162 -1 c-90 0 -169 -3 -175 -6z"/>
<path d="M3770 5930 l-32 -51 4 -117 c3 -84 9 -126 21 -149 l17 -33 170 2
c127 2 171 6 174 15 3 7 21 13 39 13 27 0 40 7 60 33 14 17 71 78 126 135 109
111 122 141 81 182 -17 17 -33 19 -150 19 -97 -1 -139 -5 -162 -16 -28 -14
-33 -14 -58 1 -32 18 -82 21 -110 6 -13 -7 -21 -7 -25 0 -3 5 -32 10 -65 10
l-58 0 -32 -50z"/>
<path d="M4699 5843 c-75 -76 -139 -146 -142 -156 -4 -9 -19 -22 -33 -27 -36
-14 -84 -69 -84 -97 0 -13 -4 -23 -9 -23 -5 0 -19 -16 -32 -35 -13 -19 -29
-35 -36 -35 -6 0 -26 -19 -45 -42 -50 -65 -77 -87 -97 -81 -15 4 -21 -2 -26
-26 -4 -18 -13 -31 -22 -31 -19 0 -93 -83 -110 -122 -7 -17 -20 -28 -31 -28
-11 0 -39 -22 -63 -50 -24 -28 -77 -85 -116 -126 -40 -41 -73 -78 -73 -82 -1
-4 -20 -16 -43 -28 l-42 -20 -3 -72 c-2 -61 0 -77 18 -99 11 -14 20 -36 20
-49 0 -13 5 -24 10 -24 6 0 10 -4 10 -10 0 -20 35 -50 60 -50 44 0 98 25 122
56 34 43 69 73 103 89 41 19 142 126 150 158 5 17 14 27 25 27 10 0 62 46 117
101 106 110 110 114 258 273 155 166 168 180 202 219 17 20 36 37 42 37 6 0
11 5 11 10 0 6 21 33 48 60 26 26 80 85 121 129 41 45 80 81 87 81 6 0 14 6
17 14 5 12 -11 42 -71 132 -6 10 -16 29 -22 42 -9 20 -16 22 -98 22 l-88 0
-135 -137z"/>
<path d="M5740 5954 c-14 -35 -13 -49 5 -64 8 -7 15 -25 15 -41 0 -18 6 -30
19 -34 24 -7 33 -28 37 -89 2 -32 8 -53 18 -58 9 -5 16 -21 16 -37 0 -17 11
-38 30 -56 22 -21 30 -38 30 -62 0 -20 6 -36 15 -39 10 -4 14 -19 13 -49 -2
-29 3 -50 15 -63 9 -10 17 -24 17 -31 0 -7 9 -24 20 -38 11 -14 20 -36 20 -49
0 -12 10 -35 23 -51 61 -78 68 -120 22 -141 -14 -6 -25 -16 -25 -22 0 -5 -14
-10 -31 -10 -21 0 -39 -9 -60 -32 -24 -27 -29 -41 -29 -82 0 -27 -6 -57 -13
-65 -7 -9 -18 -28 -24 -43 -10 -22 -9 -29 6 -42 14 -13 43 -16 158 -16 78 0
148 -3 157 -6 10 -4 16 -18 16 -35 0 -16 4 -29 9 -29 5 0 13 -10 17 -22 7 -23
59 -96 79 -111 10 -7 185 -4 235 5 23 4 25 9 26 59 1 30 -1 56 -5 59 -13 10
-31 62 -25 72 4 6 -1 17 -11 24 -18 13 -18 15 -1 33 17 18 17 19 -4 26 -26 8
-70 76 -70 109 0 13 -7 29 -15 36 -8 7 -15 22 -15 34 0 11 -7 30 -15 40 -8 11
-15 34 -15 52 0 19 -6 34 -15 38 -8 3 -15 16 -15 29 0 14 -9 35 -19 48 -13 17
-17 34 -14 53 4 20 1 31 -11 38 -9 5 -16 20 -16 33 0 13 -4 26 -9 29 -5 3 -12
22 -16 42 -3 20 -11 41 -16 48 -5 6 -18 22 -29 35 -11 14 -20 39 -20 59 0 21
-11 50 -30 78 -16 24 -32 59 -36 79 -3 19 -10 38 -15 41 -5 3 -9 16 -9 29 0
13 -10 40 -21 60 -16 27 -20 45 -15 74 5 33 2 40 -24 59 -27 20 -41 22 -175
22 l-145 0 -10 -26z"/>
<path d="M6701 5953 c-14 -17 -19 -33 -15 -47 4 -12 7 -315 6 -673 0 -359 3
-653 7 -653 4 0 13 -11 19 -25 11 -24 15 -25 107 -25 76 0 97 3 101 15 4 8 12
15 20 15 7 0 21 17 30 37 16 33 18 87 18 647 -1 336 -3 625 -6 642 -7 36 -26
76 -42 86 -6 4 -59 8 -118 8 -104 0 -107 -1 -127 -27z"/>
<path d="M887 5942 c-16 -17 -19 -40 -20 -150 -2 -111 1 -132 16 -149 16 -18
17 -57 16 -537 0 -489 1 -519 18 -532 27 -21 257 -16 271 6 5 9 13 118 17 243
7 212 6 229 -11 248 -16 18 -18 37 -15 173 2 136 0 154 -15 160 -15 6 -16 28
-12 262 6 303 18 279 -142 289 -98 7 -106 6 -123 -13z"/>
<path d="M2566 5544 c-3 -9 -6 -23 -6 -32 0 -9 -9 -28 -20 -42 -11 -14 -20
-39 -20 -56 0 -17 -7 -37 -15 -44 -8 -7 -15 -23 -15 -37 0 -13 -7 -26 -15 -29
-8 -4 -15 -18 -15 -34 0 -15 -7 -33 -15 -40 -8 -7 -15 -23 -15 -36 0 -15 -6
-24 -15 -24 -8 0 -16 -8 -16 -17 -1 -10 -2 -25 -3 -33 -1 -8 -7 -25 -14 -37
-6 -12 -12 -33 -12 -47 0 -14 -4 -26 -10 -26 -5 0 -15 -19 -22 -42 -6 -24 -15
-45 -19 -48 -18 -14 -41 -77 -41 -116 0 -29 -4 -44 -13 -44 -18 0 -47 -48 -49
-81 -1 -16 -7 -34 -14 -41 -6 -6 -12 -27 -12 -45 0 -27 4 -33 20 -33 11 0 23
-7 26 -15 5 -12 28 -15 118 -15 109 0 113 1 144 28 19 17 35 43 38 63 8 38 30
86 50 106 8 9 11 25 8 42 -4 20 -1 30 10 34 11 4 17 18 16 39 0 68 6 87 33
108 20 16 27 30 27 55 0 18 6 40 13 47 20 22 67 122 67 142 0 34 -41 140 -61
158 -10 9 -19 25 -19 36 0 11 -7 25 -15 32 -9 8 -15 26 -13 46 1 25 -5 39 -31
63 -38 35 -46 38 -55 15z"/>
<path d="M5490 5527 c0 -18 -7 -42 -15 -53 -8 -10 -15 -31 -15 -46 0 -15 -13
-50 -30 -76 -16 -27 -30 -56 -30 -65 0 -8 -7 -18 -16 -21 -9 -4 -13 -13 -10
-23 3 -10 -3 -31 -14 -48 -11 -16 -20 -38 -20 -48 0 -10 -7 -20 -15 -23 -10
-4 -15 -21 -15 -54 0 -30 -6 -52 -15 -60 -8 -7 -15 -25 -15 -40 0 -15 -6 -33
-14 -39 -8 -7 -12 -20 -9 -31 3 -11 -3 -26 -16 -36 -12 -10 -21 -28 -21 -40 0
-12 -7 -24 -15 -28 -8 -3 -15 -12 -15 -19 0 -8 -7 -20 -15 -27 -8 -7 -15 -22
-15 -33 0 -11 -6 -28 -14 -36 -7 -9 -16 -40 -18 -68 -7 -75 9 -83 152 -83
l110 0 40 40 c22 22 40 44 40 49 0 5 6 14 14 20 8 6 17 36 21 66 3 30 11 57
16 60 5 4 9 24 9 46 0 28 4 39 15 39 8 0 15 9 15 20 0 21 39 103 52 108 4 2
10 19 14 38 3 19 10 37 15 40 5 3 9 19 9 35 0 17 6 32 15 35 12 5 15 24 15 84
0 57 -4 81 -15 90 -8 7 -15 19 -15 27 0 7 -7 16 -15 19 -8 4 -15 12 -15 19 0
7 -7 26 -15 41 -8 16 -15 36 -15 45 0 9 -6 22 -14 29 -8 6 -12 18 -9 26 8 21
-25 54 -54 54 -19 0 -23 -5 -23 -33z"/>
<path d="M2054 5125 c-4 -9 -19 -15 -35 -15 -22 0 -32 -7 -44 -30 -9 -17 -23
-30 -35 -30 -10 0 -21 -4 -24 -9 -9 -13 -111 -63 -123 -59 -6 2 -31 -16 -56
-39 l-45 -43 -125 0 c-119 0 -125 -1 -140 -23 -20 -30 -24 -259 -4 -275 12 -9
87 -15 220 -16 54 -1 71 3 81 16 10 14 22 16 62 12 42 -5 52 -3 68 15 11 12
25 21 31 21 7 0 18 7 25 15 7 8 19 15 26 15 19 0 54 36 54 56 0 9 14 29 30 44
17 15 30 37 30 48 0 11 7 22 15 26 9 3 15 18 15 40 0 19 5 38 10 41 11 7 7
158 -5 188 -9 21 -24 22 -31 2z"/>
<path d="M4675 4902 c-37 -2 -63 -8 -67 -16 -4 -8 -20 -17 -35 -21 -33 -8 -63
-33 -63 -52 0 -7 -12 -23 -26 -36 -15 -12 -38 -35 -53 -51 -14 -15 -38 -40
-53 -55 -53 -55 -34 -177 20 -128 23 21 46 22 62 2 10 -12 48 -15 226 -15 131
0 215 4 219 10 3 6 17 10 31 10 13 0 32 8 43 19 16 16 19 37 20 170 1 116 -1
152 -11 155 -18 6 -241 12 -313 8z"/>
<path d="M7530 4884 c-14 -7 -46 -14 -73 -14 -64 0 -106 -24 -107 -61 0 -15
32 -49 168 -178 23 -23 42 -48 42 -56 0 -12 26 -14 168 -12 l167 2 0 45 c0 36
-4 45 -17 45 -10 0 -29 16 -43 35 -14 19 -32 38 -40 43 -8 4 -15 17 -15 28 0
11 -27 46 -60 79 -59 58 -62 60 -113 59 -29 -1 -63 -7 -77 -15z"/>
<path d="M5658 4260 c-12 -18 -24 -20 -122 -20 -104 0 -110 -1 -141 -27 -18
-16 -45 -36 -59 -46 -15 -11 -26 -27 -26 -41 0 -16 -22 -43 -71 -87 -66 -59
-70 -65 -64 -95 3 -18 6 -89 6 -159 0 -113 2 -126 19 -135 30 -16 88 12 96 47
4 15 13 36 19 46 11 15 363 374 443 450 27 27 28 47 2 47 -11 0 -20 6 -20 14
0 13 -28 26 -57 26 -7 0 -18 -9 -25 -20z"/>
<path d="M7953 4273 c-7 -2 -13 -11 -13 -19 0 -11 -16 -14 -69 -14 l-69 0 -7
-66 c-9 -80 -2 -142 19 -163 12 -12 40 -16 112 -17 67 -2 101 -7 112 -17 9 -8
29 -17 44 -21 14 -3 45 -24 69 -47 l42 -40 -6 -97 c-6 -92 -8 -97 -40 -129
l-34 -32 -144 -3 -144 -3 -1 -25 c-7 -119 -6 -248 1 -261 8 -13 33 -18 129
-22 107 -4 120 -3 137 14 12 12 33 19 59 19 23 0 46 4 53 10 77 63 102 80 121
80 23 0 56 31 56 54 0 7 7 19 15 26 8 7 15 21 15 31 0 10 6 22 13 26 17 10 47
70 47 95 0 10 6 29 14 41 22 35 31 143 13 170 -8 12 -17 36 -20 52 -9 50 -38
119 -53 128 -8 4 -14 13 -14 18 0 13 -62 103 -74 108 -5 2 -26 19 -46 37 -34
31 -43 34 -103 34 -51 0 -66 4 -71 16 -6 15 -8 15 -24 1 -17 -15 -19 -15 -35
3 -16 19 -72 26 -104 13z"/>
<path d="M7040 4256 c0 -17 -257 -30 -394 -20 -75 5 -94 4 -104 -8 -7 -10 -13
-57 -15 -124 -4 -155 -26 -144 299 -144 235 0 266 2 284 17 18 16 20 30 20
140 0 104 -2 123 -15 123 -9 0 -18 7 -21 15 -8 19 -54 20 -54 1z"/>
<path d="M479 4243 c-35 -9 -44 -50 -41 -192 1 -75 3 -253 5 -396 2 -227 4
-263 19 -284 16 -22 17 -48 11 -273 -5 -220 -4 -248 9 -248 9 0 19 -7 22 -16
4 -11 10 -13 19 -6 20 16 108 23 167 13 78 -13 85 -5 87 117 0 53 4 153 8 221
7 114 6 125 -13 151 -19 26 -20 37 -15 180 6 140 5 154 -12 166 -16 12 -17 31
-13 268 6 307 12 292 -119 293 -45 1 -90 3 -100 6 -10 2 -25 3 -34 0z"/>
<path d="M1064 4242 l-112 -3 3 -72 c1 -40 3 -102 4 -139 l1 -68 133 0 133 0
32 -33 c37 -38 41 -71 15 -128 -13 -27 -25 -39 -39 -39 -11 0 -29 -9 -39 -20
-17 -18 -28 -20 -112 -16 -51 2 -93 0 -93 -4 0 -5 -8 -10 -17 -12 -14 -3 -16
-18 -16 -120 2 -163 3 -165 135 -167 76 -1 107 3 125 14 13 9 28 13 33 10 22
-13 117 51 201 136 84 85 89 92 89 133 0 27 6 48 15 56 11 10 15 36 15 112 0
78 -3 100 -15 104 -8 4 -15 11 -15 18 0 29 -45 95 -102 148 -34 32 -67 58 -72
58 -5 0 -17 6 -25 14 -18 16 -113 22 -277 18z"/>
<path d="M1845 4210 c-4 -16 -4 -34 -1 -39 4 -5 7 -224 7 -485 l2 -475 23 -22
c13 -12 24 -33 24 -45 0 -16 7 -24 23 -26 16 -2 23 -11 25 -31 2 -16 10 -31
18 -34 8 -3 14 -11 14 -18 0 -26 198 -185 231 -185 7 0 32 -10 56 -22 l45 -22
19 24 c16 22 19 43 19 164 0 151 -5 165 -60 166 -17 0 -31 9 -42 28 -9 15 -31
39 -47 52 -21 16 -31 32 -31 50 0 16 -7 30 -14 33 -13 5 -14 34 -12 169 2 90
0 172 -4 183 -4 11 -3 135 1 275 7 227 6 256 -8 272 -14 16 -34 18 -149 18
l-132 0 -7 -30z"/>
<path d="M2819 3853 c-2 -214 -2 -407 -1 -430 1 -28 -4 -43 -14 -47 -9 -3 -14
-20 -14 -46 0 -23 -5 -50 -10 -61 -10 -18 -62 -57 -116 -87 -17 -9 -24 -22
-24 -41 0 -16 -7 -31 -15 -35 -12 -4 -15 -28 -15 -130 l0 -124 36 -12 c32 -11
39 -10 63 7 14 11 36 23 49 27 12 4 22 11 22 16 0 5 19 14 41 20 30 8 62 31
115 84 41 40 74 79 74 86 0 7 7 21 16 31 9 10 24 48 33 84 10 37 24 71 32 75
10 7 13 30 12 92 -1 70 1 86 18 101 18 17 19 35 19 360 0 188 -3 359 -6 380
l-7 37 -152 0 -153 0 -3 -387z"/>
<path d="M3270 4198 c0 -21 5 -38 10 -38 6 0 14 -8 17 -17 11 -28 65 -107 80
-116 7 -4 13 -14 13 -21 0 -7 18 -34 40 -59 22 -25 40 -50 40 -57 0 -6 14 -25
31 -42 17 -17 37 -48 45 -68 8 -21 26 -47 40 -59 13 -11 24 -30 24 -41 0 -12
15 -29 40 -45 26 -16 40 -33 40 -46 0 -12 11 -30 24 -40 14 -11 28 -29 32 -41
7 -22 51 -68 65 -68 4 0 13 -16 19 -35 6 -19 25 -48 41 -64 16 -16 29 -38 29
-48 0 -10 13 -34 30 -53 16 -19 29 -47 30 -61 0 -21 6 -28 30 -32 17 -4 30
-13 30 -21 0 -18 57 -102 93 -138 15 -15 27 -38 27 -53 0 -17 5 -25 18 -25 10
0 31 -13 47 -30 26 -27 35 -30 92 -30 47 0 65 4 69 15 5 11 19 13 60 10 45 -3
56 -1 60 13 3 9 10 25 15 35 8 14 6 24 -6 37 -8 9 -13 24 -10 33 4 8 -2 23
-13 33 -11 11 -34 45 -50 76 -17 31 -52 76 -77 99 -25 23 -45 47 -45 53 0 14
-52 92 -82 126 -13 14 -31 37 -41 52 -9 15 -25 35 -35 45 -30 29 -99 126 -106
151 -4 12 -12 22 -17 22 -5 0 -14 10 -19 23 -17 39 -87 139 -102 145 -5 2 -8
9 -8 15 0 7 -12 23 -27 37 -14 13 -30 37 -35 52 -6 16 -14 28 -18 28 -5 0 -19
17 -31 38 -13 20 -35 50 -51 66 -15 17 -28 35 -28 40 0 6 -12 22 -25 35 -14
13 -28 34 -31 47 -12 46 -53 56 -221 58 l-153 1 0 -37z"/>
<path d="M4171 4198 c-8 -181 -4 -261 12 -273 9 -7 26 -33 37 -58 11 -25 36
-59 55 -76 19 -17 35 -38 35 -47 0 -20 38 -84 50 -84 5 0 21 -20 36 -45 14
-25 27 -45 28 -45 2 0 17 7 34 16 37 18 42 48 12 64 -19 10 -20 21 -20 154 0
128 2 145 18 151 16 6 16 7 -1 20 -15 11 -18 28 -16 128 0 64 -2 120 -6 126
-4 7 -55 11 -139 11 l-133 0 -2 -42z"/>
<path d="M4617 4073 c-4 -91 -7 -222 -7 -289 0 -113 2 -124 20 -134 19 -10 20
-21 20 -419 l0 -408 31 -7 c57 -11 214 -7 232 7 24 18 46 78 37 102 -4 11 -5
68 -2 128 4 81 2 107 -8 107 -9 0 -11 90 -10 413 1 226 2 469 1 540 l-1 127
-153 0 -154 0 -6 -167z"/>
<path d="M6028 4223 c-15 -16 -17 -76 -18 -559 0 -331 -5 -555 -11 -575 -6
-20 -7 -79 -3 -147 8 -134 6 -132 128 -132 51 0 95 -5 107 -12 18 -12 24 -9
50 22 17 19 27 41 24 50 -10 26 -5 1235 5 1271 6 19 10 35 10 36 0 1 -12 15
-27 31 -28 30 -30 30 -139 31 -94 2 -112 -1 -126 -16z"/>
<path d="M7277 4222 c-21 -23 -22 -51 -2 -58 14 -6 15 -84 15 -661 -1 -761
-11 -693 106 -693 40 0 76 -4 79 -10 10 -16 34 -12 65 12 23 16 30 30 30 54 0
18 5 36 10 39 6 4 10 53 10 115 0 87 -3 109 -15 114 -13 5 -15 41 -15 241 0
179 3 243 14 263 7 15 16 49 20 75 5 44 4 49 -15 54 -20 6 -20 10 -18 237 l3
231 -135 3 c-121 2 -137 1 -152 -16z"/>
<path d="M6894 3715 c-5 -13 -32 -15 -173 -15 l-167 0 -1 -80 c0 -55 -6 -94
-18 -120 -17 -37 -17 -40 2 -72 27 -47 66 -58 97 -29 23 21 29 22 212 20 l189
-2 13 24 c8 16 11 57 9 127 -4 94 -6 106 -29 128 -31 32 -125 45 -134 19z"/>
<path d="M3293 3561 c-26 -22 -30 -49 -8 -57 11 -5 15 -23 15 -79 0 -52 -4
-76 -15 -85 -8 -7 -15 -19 -15 -27 0 -7 7 -16 15 -19 13 -5 15 -40 15 -231 0
-218 1 -225 19 -220 12 3 27 -3 37 -14 21 -24 39 -24 56 -1 10 14 28 17 88 17
66 0 75 2 78 20 3 11 12 25 21 32 15 12 15 14 -2 27 -17 13 -18 30 -16 174 3
166 4 161 -43 213 -10 10 -18 23 -18 27 0 5 -12 19 -26 33 -14 13 -36 44 -49
69 -13 25 -34 55 -47 66 -12 12 -32 33 -43 47 -24 31 -33 32 -62 8z"/>
<path d="M5441 3446 c-12 -18 -21 -38 -21 -43 0 -14 -58 -58 -87 -67 -15 -5
-23 -15 -23 -29 0 -12 -3 -31 -6 -42 -3 -14 4 -30 20 -48 14 -16 26 -33 26
-40 0 -7 19 -30 41 -52 58 -57 99 -121 99 -156 0 -21 6 -32 23 -38 22 -9 67
-62 67 -80 0 -5 21 -10 48 -10 283 -4 292 -2 292 57 0 27 -9 46 -31 72 -17 19
-39 46 -48 60 -24 38 -27 42 -65 86 -20 23 -36 46 -36 51 0 5 -13 22 -30 38
-16 16 -30 37 -30 46 0 10 -5 21 -10 24 -6 4 -21 28 -35 54 -13 27 -31 51 -39
54 -9 4 -24 23 -33 44 -15 30 -24 38 -45 38 -14 0 -30 3 -34 8 -13 13 -22 8
-43 -27z"/>
<path d="M1552 3377 c-12 -13 -22 -28 -22 -35 0 -15 -33 -32 -62 -32 -14 0
-37 -13 -53 -30 -19 -20 -35 -28 -47 -24 -12 4 -29 -7 -53 -33 -19 -21 -35
-41 -35 -44 0 -18 -86 -31 -184 -27 -68 2 -106 0 -106 -7 0 -5 -3 -67 -5 -136
-5 -126 -5 -127 20 -143 35 -23 276 -24 295 -1 10 12 24 14 60 9 35 -5 50 -2
62 9 8 9 32 19 52 22 22 5 36 13 36 22 0 8 20 38 45 65 25 28 49 64 53 82 4
17 17 35 29 40 28 13 40 113 33 274 0 8 -17 12 -48 12 -38 0 -53 -5 -70 -23z"/>
<path d="M8186 3171 c-14 -15 -24 -17 -47 -11 -23 7 -32 5 -42 -10 -10 -14
-28 -20 -72 -22 -53 -3 -61 -6 -75 -31 -14 -27 -14 -30 8 -44 12 -9 22 -21 22
-27 1 -20 35 -53 63 -60 19 -4 27 -13 27 -29 0 -26 25 -59 60 -79 32 -19 314
-30 356 -14 28 11 14 49 -38 102 -28 30 -57 67 -64 83 -7 16 -22 31 -36 34
-16 4 -31 21 -44 48 -17 38 -63 79 -90 79 -6 0 -19 -9 -28 -19z"/>
<path d="M6577 3134 c-35 -11 -51 -62 -48 -164 1 -52 4 -102 7 -111 4 -13 24
-15 137 -13 72 1 200 3 282 3 146 1 151 2 178 26 26 24 27 31 27 115 0 79 -3
92 -24 116 l-23 28 -114 -11 c-126 -13 -167 -12 -188 1 -16 10 -206 18 -234
10z"/>
</g>
</svg>
