<svg id="svg" version="1.1" width="800" height="800" xmlns="http://www.w3.org/2000/svg"><path d="M508.289 178.090 C 506.062 179.517,501.467 180.613,493.289 181.668 C 486.805 182.505,480.938 183.652,480.250 184.217 C 479.563 184.782,479.000 186.513,479.000 188.063 C 479.000 189.614,478.550 191.160,478.000 191.500 C 477.450 191.840,477.000 193.208,477.000 194.540 C 477.000 197.704,472.751 198.990,470.131 196.619 C 467.806 194.515,462.409 194.492,461.607 196.582 C 459.646 201.692,462.749 204.000,471.579 204.000 C 479.065 204.000,483.547 202.011,484.280 198.363 C 484.596 196.788,485.916 193.925,487.213 192.000 L 489.570 188.500 501.215 188.000 C 510.919 187.583,513.318 187.157,515.616 185.439 C 519.387 182.621,519.518 181.609,516.506 178.597 C 513.387 175.478,512.457 175.421,508.289 178.090 M292.000 182.161 C 282.424 184.400,276.542 186.642,274.828 188.707 C 274.190 189.476,273.405 191.719,273.084 193.692 C 272.552 196.957,272.096 197.382,268.000 198.426 C 262.527 199.821,248.415 207.475,247.653 209.463 C 247.032 211.080,249.313 216.185,251.449 217.958 C 252.537 218.861,253.573 218.755,256.019 217.490 C 258.290 216.316,260.353 216.048,263.341 216.539 C 268.803 217.438,274.005 219.624,275.479 221.640 C 276.951 223.654,281.109 223.123,289.500 219.850 L 295.500 217.510 392.500 217.707 C 486.148 217.897,505.185 218.426,515.500 221.121 C 527.040 224.136,529.849 222.802,523.505 217.318 C 519.710 214.037,516.480 213.061,515.833 215.000 C 515.617 215.650,511.128 215.482,503.000 214.520 C 494.103 213.466,478.248 212.990,448.000 212.868 C 415.858 212.737,408.790 212.511,419.000 211.937 C 429.216 211.362,433.602 210.682,437.030 209.139 C 442.999 206.454,453.854 205.318,457.089 207.042 C 458.415 207.748,460.026 209.041,460.669 209.913 C 461.587 211.158,463.778 211.500,470.836 211.500 C 478.746 211.500,480.222 211.212,483.055 209.117 C 486.240 206.763,486.566 206.734,510.724 206.696 C 530.790 206.665,535.332 206.913,536.070 208.079 C 537.461 210.276,537.169 211.184,535.250 210.627 C 533.630 210.158,522.100 209.623,519.250 209.885 C 516.633 210.126,518.157 211.961,521.750 212.895 C 531.405 215.407,539.885 216.166,545.431 215.014 C 548.475 214.382,551.251 213.403,551.601 212.837 C 552.629 211.173,549.661 208.982,545.455 208.299 C 542.224 207.775,537.411 204.268,538.464 203.205 C 539.101 202.562,548.756 205.316,552.986 207.346 C 555.454 208.531,559.735 211.124,562.501 213.108 C 565.267 215.093,568.649 217.057,570.015 217.474 C 573.908 218.661,582.968 226.024,583.591 228.507 C 583.901 229.740,585.181 231.217,586.436 231.789 C 587.945 232.476,589.642 235.147,591.442 239.665 C 592.939 243.424,595.085 247.490,596.209 248.699 C 598.994 251.696,598.113 253.205,592.374 255.266 C 587.810 256.906,576.166 257.032,409.385 257.258 L 231.270 257.500 228.135 254.144 C 226.241 252.117,225.000 249.731,225.000 248.117 C 225.000 244.864,227.542 241.000,229.682 241.000 C 230.878 241.000,231.113 240.314,230.671 238.105 C 229.907 234.285,231.002 234.031,248.307 234.014 L 262.113 234.000 260.732 236.750 C 259.973 238.262,258.372 241.389,257.176 243.698 C 255.979 246.007,255.000 249.074,255.000 250.515 C 255.000 252.774,255.372 253.089,257.714 252.816 C 260.030 252.547,261.095 251.177,264.964 243.500 L 269.500 234.500 400.000 234.263 C 503.668 234.074,531.014 234.286,532.998 235.291 C 534.372 235.987,536.397 238.030,537.498 239.829 C 543.323 249.351,545.831 252.500,547.585 252.500 C 550.454 252.500,550.413 249.670,547.448 243.062 C 543.341 233.913,543.198 234.000,562.397 234.000 C 576.068 234.000,579.125 233.732,580.438 232.419 C 582.272 230.585,581.702 229.217,578.613 228.043 C 577.406 227.584,510.287 227.088,429.460 226.939 C 348.632 226.791,269.752 226.237,254.172 225.708 C 231.367 224.934,225.368 225.000,223.409 226.049 C 220.572 227.567,216.000 235.243,216.000 238.488 C 216.000 239.719,214.596 242.474,212.880 244.612 C 209.254 249.130,206.000 256.160,206.000 259.476 C 206.000 262.497,207.742 263.102,218.288 263.746 L 227.076 264.282 226.788 272.256 L 226.500 280.231 220.770 282.001 C 213.333 284.299,208.117 286.915,202.613 291.109 C 198.639 294.137,195.000 299.364,195.000 302.045 C 195.000 302.582,194.144 304.929,193.097 307.261 C 190.786 312.409,188.000 320.856,188.000 322.713 C 188.000 323.460,187.225 325.253,186.278 326.699 C 184.492 329.425,181.543 336.926,179.870 343.000 C 179.340 344.925,178.505 347.400,178.016 348.500 C 177.526 349.600,176.846 351.625,176.505 353.000 C 176.163 354.375,175.287 357.075,174.558 359.000 C 173.829 360.925,172.665 364.975,171.971 368.000 C 171.278 371.025,168.786 377.100,166.433 381.500 C 164.079 385.900,161.206 392.663,160.047 396.528 C 158.817 400.632,157.148 404.051,156.035 404.746 C 151.766 407.412,140.072 407.985,89.789 407.992 C 39.283 408.000,38.034 408.047,36.205 410.010 C 31.134 415.453,26.638 432.416,27.166 444.110 L 27.500 451.500 21.743 451.535 C 17.238 451.563,15.523 452.032,13.863 453.693 C 12.019 455.536,11.885 456.231,12.840 458.972 C 13.688 461.403,13.603 463.428,12.470 467.775 C 11.662 470.880,10.998 475.238,10.996 477.460 C 10.994 479.860,10.111 482.920,8.820 485.000 C 1.747 496.396,1.710 496.583,1.843 519.817 C 2.016 549.884,2.557 550.644,26.880 555.086 C 29.838 555.626,33.115 556.526,34.161 557.086 C 37.460 558.852,50.855 560.195,70.193 560.698 C 88.402 561.173,88.893 561.241,89.193 563.343 C 89.637 566.459,94.375 566.381,94.820 563.250 C 95.092 561.331,95.747 561.000,99.273 561.000 C 105.566 561.000,124.570 563.020,133.100 564.596 C 141.960 566.233,184.414 566.559,190.000 565.033 C 191.925 564.507,202.950 563.568,214.500 562.947 C 252.900 560.881,290.919 558.168,292.150 557.407 C 295.256 555.488,322.442 553.710,359.500 553.002 C 414.825 551.945,548.187 551.832,549.776 552.841 C 550.478 553.286,551.320 556.092,551.645 559.075 C 551.971 562.059,552.890 565.543,553.687 566.818 C 555.121 569.114,555.285 569.132,570.818 568.706 C 579.443 568.469,617.325 567.778,655.000 567.169 C 692.675 566.561,725.750 565.626,728.500 565.092 C 731.250 564.557,739.350 563.715,746.500 563.221 C 763.064 562.075,768.039 560.153,770.820 553.824 C 774.672 545.059,779.042 512.416,778.317 497.816 L 778.135 494.133 782.188 498.066 C 785.525 501.305,786.943 502.000,790.216 502.000 C 795.370 502.000,800.000 499.295,800.000 496.284 C 800.000 493.469,799.138 493.439,794.074 496.079 L 790.086 498.157 785.399 494.579 C 782.821 492.610,779.877 491.000,778.856 491.000 C 777.537 491.000,777.000 490.268,777.000 488.468 C 777.000 484.543,770.991 469.900,768.260 467.169 C 765.889 464.798,765.499 464.742,755.657 465.352 C 750.070 465.698,740.550 466.417,734.500 466.949 C 721.171 468.122,675.268 469.189,682.932 468.148 C 685.919 467.742,688.506 466.980,688.681 466.455 C 688.862 465.909,692.964 465.633,698.249 465.811 C 703.337 465.981,712.450 465.658,718.500 465.092 C 740.861 463.001,749.614 461.978,754.174 460.921 C 756.744 460.325,761.449 459.814,764.629 459.785 C 769.658 459.740,770.609 460.043,771.933 462.117 C 772.770 463.427,775.170 466.075,777.264 468.000 C 779.359 469.925,784.922 475.212,789.626 479.750 C 794.330 484.287,798.589 488.000,799.090 488.000 C 799.590 488.000,800.000 486.938,800.000 485.641 C 800.000 482.627,793.876 475.661,784.462 467.969 C 780.428 464.672,776.874 461.178,776.565 460.204 C 775.011 455.308,762.206 453.279,752.785 456.436 C 746.819 458.435,708.235 462.237,698.544 461.780 L 692.588 461.500 690.288 457.000 C 689.023 454.525,684.809 445.525,680.924 437.000 C 677.038 428.475,672.474 418.800,670.780 415.500 C 667.313 408.744,666.909 407.906,664.763 403.000 C 663.921 401.075,661.605 396.040,659.616 391.812 C 657.627 387.583,656.000 383.872,656.000 383.564 C 656.000 383.256,654.473 380.866,652.606 378.252 C 646.720 370.011,643.159 362.417,638.061 347.236 C 635.339 339.131,631.933 329.350,630.493 325.500 C 629.052 321.650,627.263 316.700,626.518 314.500 C 621.957 301.040,619.566 295.244,617.774 293.300 C 615.438 290.766,605.580 285.518,599.000 283.305 C 593.387 281.417,591.374 279.662,589.982 275.444 C 589.190 273.045,589.190 271.008,589.982 268.065 L 591.077 264.000 599.289 263.985 C 609.786 263.965,610.358 263.594,609.445 257.390 C 608.769 252.799,604.770 243.594,602.968 242.480 C 602.520 242.203,601.869 240.681,601.521 239.096 C 599.314 229.046,586.284 218.026,558.790 202.956 C 553.279 199.936,550.632 197.924,550.893 196.956 C 551.919 193.154,551.442 191.492,549.234 191.178 C 546.578 190.801,540.106 195.565,538.046 199.414 L 536.662 202.000 511.375 202.000 C 486.314 202.000,486.057 202.021,482.543 204.406 C 478.710 207.007,470.527 208.601,466.808 207.470 C 465.539 207.084,463.068 205.695,461.317 204.384 C 458.565 202.324,457.018 202.000,449.913 202.000 C 442.997 202.000,440.805 202.433,436.096 204.727 L 430.500 207.455 349.500 207.738 C 304.950 207.893,266.559 208.273,264.186 208.581 C 260.800 209.021,260.104 209.420,260.949 210.438 C 261.788 211.449,261.201 211.868,258.286 212.341 C 253.067 213.188,252.000 211.580,256.116 209.070 C 257.977 207.936,260.197 207.006,261.050 207.004 C 261.903 207.002,263.162 206.438,263.850 205.750 C 264.825 204.775,282.937 204.446,346.300 204.256 C 428.228 204.010,438.000 203.602,438.000 200.428 C 438.000 196.275,430.599 193.368,428.000 196.500 C 426.924 197.797,419.994 198.000,376.889 198.000 L 327.022 198.000 320.341 190.979 C 316.666 187.118,313.035 183.068,312.273 181.979 C 310.459 179.389,303.594 179.451,292.000 182.161 M287.250 189.119 C 284.101 190.028,283.128 191.343,284.827 192.393 C 285.282 192.674,290.029 192.247,295.377 191.444 C 302.545 190.367,305.634 190.269,307.135 191.072 C 309.327 192.245,308.846 193.467,306.160 193.553 C 296.128 193.871,283.980 195.442,284.290 196.382 C 284.493 196.997,286.198 197.739,288.079 198.032 C 291.414 198.551,291.377 198.582,286.610 199.282 C 278.124 200.528,278.000 200.480,278.000 195.951 C 278.000 192.157,278.267 191.781,282.250 189.973 C 284.587 188.912,287.400 188.075,288.500 188.112 C 289.733 188.154,289.253 188.540,287.250 189.119 M228.500 231.113 C 225.729 232.467,220.978 242.391,220.280 248.281 C 219.752 252.743,219.952 253.400,222.585 255.834 L 225.469 258.500 219.596 258.804 C 210.992 259.249,210.514 258.879,213.100 253.770 C 214.289 251.421,216.142 248.250,217.219 246.721 C 218.296 245.193,219.631 242.268,220.186 240.221 C 221.913 233.848,224.817 229.991,227.832 230.068 C 230.278 230.130,230.334 230.217,228.500 231.113 M572.649 261.684 C 572.049 262.284,538.398 264.215,532.500 263.988 C 503.077 262.853,509.439 261.597,546.427 261.239 C 561.237 261.096,573.037 261.296,572.649 261.684 M391.750 262.750 C 369.887 262.900,334.112 262.900,312.250 262.750 C 290.387 262.599,308.275 262.476,352.000 262.476 C 395.725 262.476,413.612 262.599,391.750 262.750 M579.811 270.816 L 580.121 275.132 555.722 274.816 L 531.323 274.500 533.375 271.715 C 535.901 268.287,535.788 268.310,556.000 267.197 C 580.672 265.839,579.439 265.651,579.811 270.816 M527.820 268.500 C 528.546 268.770,528.996 270.006,528.820 271.246 L 528.500 273.500 401.500 274.000 C 331.650 274.275,266.288 274.368,256.250 274.206 L 238.000 273.913 238.000 270.979 L 238.000 268.046 255.750 267.773 C 284.938 267.324,526.392 267.970,527.820 268.500 M440.250 279.750 C 409.313 279.897,358.688 279.897,327.750 279.750 C 296.813 279.603,322.125 279.483,384.000 279.483 C 445.875 279.483,471.188 279.603,440.250 279.750 M584.065 286.261 C 585.475 287.210,590.138 288.884,594.427 289.981 C 605.864 292.907,609.799 295.668,613.690 303.500 C 617.884 311.941,619.055 314.734,621.448 322.000 C 622.806 326.125,625.693 334.450,627.863 340.500 C 630.033 346.550,632.362 353.075,633.038 355.000 C 633.715 356.925,634.662 359.288,635.143 360.250 C 635.624 361.213,637.154 365.020,638.542 368.709 C 639.931 372.398,641.654 376.111,642.370 376.958 C 643.713 378.547,652.000 392.855,652.000 393.585 C 652.000 394.592,662.800 416.852,669.242 429.123 C 671.155 432.766,673.016 436.928,673.379 438.373 C 673.741 439.818,674.480 441.000,675.019 441.000 C 675.559 441.000,676.000 441.718,676.000 442.596 C 676.000 443.473,676.635 445.386,677.412 446.846 C 680.404 452.472,683.760 459.596,684.433 461.750 C 685.098 463.882,684.866 464.000,680.002 464.000 C 677.178 464.000,674.111 464.400,673.184 464.889 C 672.258 465.378,666.177 465.538,659.671 465.246 C 648.735 464.754,647.780 464.552,647.024 462.564 C 646.103 460.140,627.637 436.172,625.220 434.263 C 624.358 433.583,620.919 429.473,617.577 425.131 C 610.708 416.206,599.968 402.657,597.011 399.188 C 595.927 397.916,593.119 394.091,590.770 390.688 C 588.422 387.284,586.265 384.275,585.978 384.000 C 585.691 383.725,583.481 380.350,581.067 376.500 C 578.653 372.650,575.557 367.802,574.187 365.728 C 572.760 363.565,571.735 360.612,571.786 358.808 C 571.960 352.709,566.241 346.433,563.890 350.143 C 562.630 352.132,562.760 352.609,565.397 355.675 L 567.794 358.462 565.397 360.683 C 560.868 364.880,562.712 371.035,573.213 386.774 C 576.048 391.023,578.655 394.725,579.006 395.000 C 581.716 397.124,605.000 429.309,605.000 430.931 C 605.000 432.623,611.964 439.000,613.812 439.000 C 615.670 439.000,633.286 455.696,634.347 458.463 C 634.660 459.277,637.072 461.298,639.708 462.953 L 644.500 465.962 621.000 465.979 C 594.037 465.998,571.114 464.542,569.266 462.694 C 568.583 462.011,567.497 458.763,566.854 455.476 C 565.106 446.546,561.612 439.236,558.390 437.768 C 552.907 435.270,538.000 421.438,538.000 418.848 C 538.000 415.010,546.423 417.836,554.500 424.383 C 557.273 426.631,557.413 427.046,556.351 429.869 C 555.456 432.250,555.483 433.156,556.475 433.979 C 558.889 435.982,561.500 433.626,563.378 427.750 C 563.703 426.733,564.930 426.000,566.308 426.000 C 569.470 426.000,625.000 456.875,625.000 458.633 C 625.000 458.835,623.532 459.000,621.737 459.000 C 619.340 459.000,618.212 458.416,617.487 456.799 C 616.594 454.806,606.048 448.645,605.107 449.567 C 604.359 450.301,607.522 453.356,611.946 456.171 C 615.819 458.635,616.076 459.002,613.946 459.015 C 612.601 459.024,610.862 459.435,610.082 459.928 C 609.148 460.520,606.929 460.053,603.582 458.563 C 595.333 454.889,571.648 441.084,569.750 438.844 C 567.557 436.256,567.485 432.412,569.613 431.595 C 570.919 431.094,570.990 430.693,569.990 429.488 C 567.694 426.722,565.163 427.723,563.915 431.891 C 562.146 437.794,565.447 443.025,573.972 447.829 C 577.556 449.848,581.231 451.950,582.139 452.500 C 583.047 453.050,587.740 455.716,592.567 458.425 L 601.345 463.350 614.340 463.436 C 622.320 463.489,627.753 463.110,628.418 462.455 C 629.013 461.868,630.400 461.038,631.500 460.610 C 634.729 459.353,629.835 455.463,608.000 441.929 C 607.175 441.417,605.375 440.530,604.000 439.956 C 602.625 439.383,600.600 438.359,599.500 437.681 C 597.784 436.623,592.242 433.501,578.500 425.853 C 576.850 424.934,573.250 422.990,570.500 421.532 C 567.750 420.075,563.700 417.654,561.500 416.154 C 557.384 413.346,557.411 413.403,553.353 399.000 C 552.500 395.975,550.996 390.800,550.009 387.500 C 549.023 384.200,547.435 377.900,546.481 373.500 C 545.528 369.100,544.120 363.250,543.354 360.500 C 542.587 357.750,541.535 353.475,541.015 351.000 C 540.495 348.525,539.403 343.316,538.590 339.424 C 537.776 335.532,536.417 330.357,535.570 327.924 C 534.722 325.491,534.023 322.703,534.015 321.729 C 533.972 316.516,526.127 309.808,515.610 305.992 C 513.664 305.286,478.470 304.944,407.765 304.944 L 302.809 304.945 297.655 307.546 C 288.977 311.925,287.430 312.864,285.850 314.715 C 284.185 316.666,280.000 328.589,280.000 331.383 C 280.000 332.340,279.381 335.234,278.626 337.812 C 276.649 344.554,274.091 354.496,272.403 362.000 C 271.599 365.575,270.299 371.200,269.513 374.500 C 268.728 377.800,267.398 383.492,266.557 387.148 C 265.716 390.805,264.510 395.080,263.877 396.648 C 263.244 398.217,262.356 401.300,261.904 403.500 C 260.278 411.410,258.129 419.680,255.020 430.000 C 252.019 439.960,250.636 442.969,249.556 441.889 C 249.038 441.372,251.255 430.603,253.565 422.412 C 254.354 419.614,255.000 416.701,255.000 415.940 C 255.000 415.179,255.874 411.619,256.941 408.028 C 258.009 404.438,259.830 397.225,260.988 392.000 C 265.445 371.898,265.971 369.769,271.499 349.500 C 272.249 346.750,273.818 340.450,274.986 335.500 C 280.900 310.434,281.088 310.087,291.861 304.359 L 296.298 302.000 408.231 302.000 L 520.163 302.000 526.332 305.592 C 532.846 309.385,536.904 313.412,536.964 316.143 C 536.999 317.747,541.208 334.490,545.098 348.500 C 546.167 352.350,547.747 358.425,548.609 362.000 C 549.471 365.575,550.842 371.200,551.655 374.500 C 552.468 377.800,553.723 383.200,554.444 386.500 C 555.165 389.800,556.434 394.525,557.265 397.000 C 558.096 399.475,559.057 403.051,559.402 404.948 C 560.265 409.693,562.634 413.000,565.172 413.000 C 567.223 413.000,567.276 412.696,566.685 404.323 C 566.348 399.551,565.328 392.463,564.418 388.573 C 561.644 376.711,559.202 366.801,557.500 360.500 C 555.749 354.018,555.003 351.014,552.660 341.000 C 548.872 324.812,545.213 312.625,542.376 306.750 L 540.083 302.000 544.291 302.088 C 546.606 302.136,550.682 302.473,553.348 302.838 L 558.196 303.500 560.518 310.635 C 561.795 314.560,563.310 318.610,563.885 319.635 C 566.100 323.588,569.001 330.972,569.015 332.695 C 569.024 333.688,570.775 338.418,572.907 343.207 C 576.285 350.795,576.609 352.144,575.423 353.707 C 572.346 357.764,574.423 361.891,582.261 367.294 C 587.951 371.217,599.181 382.861,606.742 392.678 C 609.359 396.076,613.750 401.540,616.500 404.822 C 619.250 408.103,625.100 415.415,629.500 421.072 C 633.900 426.728,639.335 433.413,641.577 435.928 C 643.820 438.442,647.331 442.750,649.380 445.500 C 651.429 448.250,655.850 453.313,659.205 456.750 C 664.196 461.864,665.890 463.000,668.530 463.000 C 672.614 463.000,674.356 461.059,673.132 457.872 C 672.632 456.567,669.659 450.100,666.526 443.500 C 663.394 436.900,659.787 429.250,658.511 426.500 C 657.236 423.750,654.295 417.450,651.977 412.500 C 649.659 407.550,646.502 400.800,644.961 397.500 C 641.740 390.600,638.438 381.080,637.503 376.000 C 636.548 370.806,633.970 363.100,632.985 362.491 C 632.511 362.198,630.480 364.105,628.472 366.729 C 625.114 371.116,624.870 371.879,625.440 376.213 C 627.075 388.659,639.190 416.000,643.068 416.000 C 644.786 416.000,644.025 412.923,640.393 405.184 C 635.696 395.178,630.000 378.625,630.000 374.983 C 630.000 370.007,631.786 370.773,632.939 376.243 C 635.472 388.272,637.700 393.554,662.888 447.269 C 665.150 452.092,667.000 456.350,667.000 456.732 C 667.000 459.545,649.763 439.076,605.366 383.537 C 600.115 376.969,593.999 370.784,588.116 366.092 C 579.073 358.881,578.232 357.761,579.891 355.142 C 580.529 354.136,581.348 354.846,583.060 357.892 C 584.329 360.152,585.719 362.000,586.148 362.000 C 588.905 362.000,608.587 383.809,632.399 413.250 C 634.517 415.869,637.084 418.000,638.120 418.000 C 640.615 418.000,640.535 417.644,636.807 412.180 C 626.625 397.257,599.354 365.746,592.500 360.984 C 588.021 357.872,585.936 354.206,579.999 339.000 C 577.744 333.225,575.484 327.600,574.976 326.500 C 573.646 323.616,570.991 315.998,570.088 312.476 C 569.662 310.814,568.792 308.481,568.156 307.292 C 565.467 302.267,566.038 302.000,579.480 302.000 C 588.513 302.000,593.048 301.564,595.903 300.422 C 602.786 297.668,602.063 295.158,593.807 293.144 C 587.512 291.609,212.000 291.492,212.000 293.025 C 212.000 295.041,216.772 295.778,233.512 296.349 C 256.173 297.122,256.295 297.134,250.192 298.023 C 247.272 298.448,244.122 299.485,243.191 300.327 C 242.029 301.379,240.984 301.571,239.857 300.940 C 237.391 299.560,218.276 298.188,212.000 298.940 C 204.254 299.869,202.456 301.133,201.073 306.624 C 200.424 309.203,198.287 314.281,196.326 317.907 C 193.413 323.292,192.873 323.881,193.380 321.123 C 193.722 319.266,195.625 313.641,197.610 308.623 C 201.271 299.369,206.765 292.000,210.003 292.000 C 210.881 292.000,212.152 291.448,212.827 290.773 C 213.609 289.991,217.539 289.505,223.652 289.434 C 232.174 289.335,233.430 289.086,234.874 287.205 C 236.129 285.571,237.870 284.995,242.500 284.682 C 245.800 284.459,323.425 284.335,415.000 284.406 C 570.902 284.527,581.663 284.645,584.065 286.261 M563.331 298.581 C 562.911 299.675,562.074 299.949,560.612 299.473 C 559.450 299.095,553.834 298.556,548.132 298.275 C 536.775 297.716,536.044 298.025,536.015 303.405 C 536.001 306.092,535.869 306.194,534.250 304.769 C 533.288 303.921,529.849 301.826,526.609 300.114 L 520.718 297.000 542.328 297.000 C 561.615 297.000,563.872 297.170,563.331 298.581 M275.288 304.254 C 272.743 307.037,270.000 312.361,270.000 314.516 C 270.000 316.719,266.319 333.031,264.024 341.000 C 262.994 344.575,261.472 350.200,260.640 353.500 C 259.809 356.800,258.387 362.200,257.480 365.500 C 256.573 368.800,255.229 374.200,254.493 377.500 C 252.640 385.810,251.263 391.561,249.585 398.000 C 248.797 401.025,247.477 406.200,246.652 409.500 C 245.828 412.800,244.418 418.200,243.520 421.500 C 242.621 424.800,241.413 429.525,240.835 432.000 C 239.539 437.548,236.826 440.642,232.670 441.309 C 230.926 441.589,225.675 442.747,221.000 443.883 C 209.756 446.615,202.092 446.647,198.696 443.975 C 196.366 442.143,196.224 441.643,197.202 438.725 C 197.797 436.951,198.828 434.825,199.493 434.000 C 202.300 430.520,204.913 424.076,205.980 418.000 C 207.119 411.522,211.838 397.047,214.564 391.669 C 215.354 390.112,216.000 388.194,216.000 387.408 C 216.000 386.622,216.861 384.071,217.913 381.739 C 220.139 376.807,232.721 342.920,233.967 338.500 C 234.903 335.184,241.663 315.660,242.971 312.500 C 243.426 311.400,244.352 309.028,245.029 307.229 C 245.706 305.429,246.764 303.629,247.380 303.229 C 248.413 302.556,275.971 301.181,276.921 301.754 C 277.152 301.894,276.417 303.019,275.288 304.254 M236.163 304.763 C 236.918 305.518,236.289 308.555,234.010 315.165 C 232.239 320.299,230.446 324.950,230.024 325.500 C 228.478 327.515,223.165 343.637,222.534 348.228 C 222.177 350.828,220.784 354.924,219.439 357.330 C 218.094 359.737,216.117 364.255,215.045 367.370 C 213.973 370.486,211.995 375.165,210.651 377.768 C 207.881 383.129,205.017 391.515,204.936 394.500 C 204.831 398.399,200.596 405.418,197.744 406.421 C 194.813 407.452,172.184 405.500,170.719 404.090 C 169.895 403.297,173.446 392.882,175.684 389.527 C 176.408 388.443,177.000 386.967,177.000 386.249 C 177.000 385.531,178.586 381.601,180.525 377.516 C 182.463 373.431,184.552 367.481,185.167 364.294 C 185.781 361.107,187.274 357.150,188.485 355.500 C 189.722 353.813,190.943 350.280,191.274 347.427 C 191.827 342.671,193.279 338.374,196.598 331.669 C 197.369 330.112,198.008 328.087,198.019 327.169 C 198.029 326.251,199.604 322.408,201.519 318.630 C 203.433 314.851,205.007 310.801,205.015 309.630 C 205.034 307.037,205.878 305.704,208.500 304.124 C 210.982 302.628,234.573 303.173,236.163 304.763 M512.600 310.391 C 520.490 312.478,526.449 316.416,528.287 320.758 C 530.548 326.100,531.263 328.776,537.453 355.084 C 540.505 368.055,544.620 384.480,546.596 391.584 C 548.573 398.688,550.767 406.878,551.472 409.785 C 552.866 415.535,554.935 418.398,559.341 420.676 C 560.905 421.485,561.946 422.387,561.653 422.680 C 561.360 422.973,559.181 421.817,556.810 420.110 C 549.307 414.709,542.209 411.704,538.407 412.321 C 536.533 412.625,535.000 412.453,535.000 411.937 C 535.000 411.422,536.538 411.000,538.418 411.000 C 546.237 411.000,547.544 408.745,545.479 398.816 C 543.136 387.548,533.131 346.744,529.832 335.000 C 526.141 321.858,524.810 319.654,520.911 320.226 C 518.661 320.557,518.000 320.264,518.000 318.938 C 518.000 317.994,517.212 316.273,516.250 315.113 C 514.683 313.225,512.930 312.910,499.500 312.109 C 465.580 310.084,312.652 311.278,306.563 313.614 C 305.705 313.944,304.632 315.628,304.179 317.357 C 303.366 320.464,303.343 320.474,302.143 318.250 C 300.325 314.880,293.665 315.055,291.387 318.533 C 289.503 321.408,289.168 328.568,290.839 330.239 C 291.655 331.055,291.154 331.836,288.955 333.173 C 285.479 335.288,284.758 336.832,282.500 347.000 C 281.584 351.125,279.045 361.925,276.859 371.000 C 274.672 380.075,271.324 394.025,269.418 402.000 C 267.512 409.975,265.249 419.145,264.389 422.377 C 262.181 430.675,263.095 434.404,268.114 437.572 C 270.324 438.967,273.034 441.639,274.138 443.510 C 276.522 447.549,279.330 448.689,282.202 446.782 C 283.918 445.643,286.040 438.416,294.047 406.447 C 306.787 355.581,307.189 354.369,312.408 351.037 C 314.109 349.952,316.599 348.262,317.942 347.282 C 320.234 345.610,325.816 345.483,408.388 345.219 L 496.391 344.937 501.748 348.627 C 505.118 350.947,507.688 353.649,508.676 355.908 C 510.220 359.440,512.304 367.499,533.426 451.602 L 544.000 493.704 544.000 512.217 C 544.000 529.432,544.145 530.915,546.073 533.365 C 547.673 535.400,549.026 536.000,552.014 536.000 C 554.141 536.000,556.133 536.406,556.440 536.903 C 556.747 537.400,557.522 542.462,558.162 548.153 C 558.859 554.360,559.922 559.200,560.817 560.250 C 562.165 561.830,564.696 561.997,586.905 561.973 C 613.250 561.944,628.400 560.927,632.116 558.938 C 634.325 557.756,634.340 557.672,632.463 557.018 C 631.383 556.642,619.448 556.753,605.939 557.266 C 592.037 557.793,577.499 557.829,572.439 557.349 L 563.500 556.500 562.838 547.815 C 561.784 533.987,560.208 531.000,553.967 531.000 C 551.920 531.000,549.758 530.413,549.163 529.696 C 548.492 528.888,547.948 520.622,547.731 507.946 C 547.404 488.881,547.162 486.622,544.146 474.500 C 542.366 467.350,540.538 460.810,540.083 459.967 C 539.627 459.124,538.943 456.874,538.562 454.967 C 538.181 453.060,537.027 448.350,535.998 444.500 C 534.969 440.650,533.158 433.675,531.975 429.000 C 530.792 424.325,529.355 418.700,528.781 416.500 C 528.208 414.300,527.146 410.025,526.421 407.000 C 525.696 403.975,524.421 398.800,523.588 395.500 C 521.174 385.935,519.017 376.766,518.349 373.226 C 518.009 371.425,517.341 369.711,516.865 369.417 C 516.389 369.123,516.000 367.799,516.000 366.476 C 516.000 363.882,513.645 356.003,511.700 352.084 C 511.040 350.756,507.822 347.718,504.550 345.334 L 498.600 341.000 408.550 341.005 C 320.171 341.010,318.444 341.048,315.500 343.011 C 313.850 344.111,311.021 345.962,309.213 347.126 C 307.406 348.289,305.248 350.553,304.418 352.158 C 302.342 356.173,298.015 369.099,298.007 371.312 C 298.003 372.309,297.381 375.234,296.626 377.812 C 294.680 384.449,292.093 394.485,290.520 401.500 C 289.780 404.800,288.189 411.100,286.983 415.500 C 283.379 428.655,281.831 435.263,281.301 439.750 C 280.707 444.774,279.712 445.134,277.979 440.950 C 277.285 439.273,274.713 436.522,272.264 434.838 C 267.235 431.377,267.230 431.332,270.456 417.500 C 271.354 413.650,272.474 408.700,272.945 406.500 C 273.416 404.300,274.495 400.025,275.341 397.000 C 277.587 388.977,283.797 362.231,284.615 357.059 C 285.001 354.617,285.918 351.467,286.652 350.059 C 287.387 348.652,287.990 345.845,287.994 343.823 C 288.001 339.523,291.582 336.000,295.944 336.000 C 299.516 336.000,302.498 333.740,301.693 331.643 C 301.346 330.738,299.473 329.239,297.531 328.313 C 293.743 326.507,293.144 324.538,295.438 321.441 C 296.859 319.523,296.895 319.524,298.469 321.500 C 299.345 322.600,301.430 326.313,303.103 329.750 C 304.776 333.188,306.675 336.067,307.322 336.149 C 307.970 336.230,346.975 336.202,394.000 336.086 C 481.203 335.871,498.596 336.420,501.991 339.492 C 502.908 340.321,503.990 341.000,504.395 341.000 C 506.084 341.000,512.234 346.552,513.715 349.414 C 515.358 352.589,517.179 358.380,519.562 368.000 C 522.643 380.445,523.237 382.698,524.566 387.000 C 525.330 389.475,526.252 393.525,526.614 396.000 C 526.977 398.475,527.642 400.972,528.093 401.550 C 528.543 402.127,529.227 404.602,529.612 407.050 C 529.997 409.497,531.142 413.450,532.156 415.833 C 533.170 418.216,534.005 421.816,534.012 423.833 C 534.024 427.473,535.900 435.838,539.823 449.736 C 542.195 458.143,542.630 459.000,544.524 459.000 C 546.950 459.000,548.266 455.061,547.576 449.860 C 547.003 445.542,547.141 445.000,548.811 445.000 C 551.460 445.000,553.712 447.861,554.530 452.267 C 554.914 454.338,556.415 457.298,557.864 458.845 L 560.500 461.656 555.500 462.820 C 550.652 463.950,547.000 466.836,547.000 469.539 C 547.000 472.715,549.964 473.779,560.709 474.462 C 574.829 475.360,720.102 473.204,727.589 471.985 C 730.765 471.469,740.453 470.743,749.118 470.372 L 764.874 469.699 767.588 475.599 C 770.338 481.577,771.338 484.011,772.414 487.344 C 773.272 490.003,768.191 498.547,765.106 499.632 L 762.572 500.523 764.909 502.701 C 767.180 504.817,767.226 505.188,766.512 515.689 C 765.943 524.042,765.325 527.134,763.791 529.290 C 761.661 532.285,755.955 535.326,749.500 536.907 C 747.300 537.446,743.700 538.400,741.500 539.029 C 733.276 541.377,721.753 543.275,698.000 546.194 C 684.546 547.848,641.290 547.845,625.500 546.189 C 588.286 542.287,586.473 541.859,579.853 535.408 C 575.015 530.693,570.000 521.794,570.000 517.924 C 570.000 516.920,569.344 513.580,568.543 510.502 C 567.741 507.425,566.778 500.445,566.402 494.991 C 565.871 487.282,565.297 484.622,563.821 483.038 C 561.808 480.878,559.388 480.358,558.833 481.967 C 558.650 482.499,556.704 483.070,554.510 483.237 C 550.057 483.575,548.135 486.699,551.791 487.656 C 555.663 488.668,557.071 495.028,554.516 499.969 C 552.909 503.077,553.599 506.260,557.557 514.000 C 558.542 515.925,559.944 518.694,560.674 520.154 C 561.403 521.614,562.000 523.945,562.000 525.333 C 562.000 526.721,562.616 528.473,563.368 529.225 C 564.121 529.978,565.067 531.697,565.472 533.047 C 566.341 535.943,577.855 548.000,579.753 548.000 C 580.473 548.000,583.636 548.851,586.782 549.892 C 589.927 550.933,596.550 552.083,601.500 552.449 C 606.450 552.814,613.096 553.559,616.269 554.104 C 619.442 554.649,624.736 554.790,628.033 554.417 C 633.277 553.823,633.870 553.545,632.764 552.196 C 631.669 550.860,631.835 550.742,634.000 551.313 C 635.375 551.676,642.012 551.979,648.750 551.986 C 658.011 551.997,660.939 552.305,660.750 553.250 C 660.588 554.062,662.034 554.610,664.882 554.814 C 668.518 555.074,669.161 554.862,668.663 553.564 C 668.160 552.254,669.025 552.000,674.000 552.000 C 678.867 552.000,679.833 552.270,679.362 553.500 C 678.891 554.725,679.832 555.000,684.500 555.000 C 689.231 555.000,690.112 554.735,689.624 553.462 C 688.856 551.460,689.620 551.243,701.607 550.054 C 719.977 548.231,723.513 547.978,722.250 548.575 C 721.563 548.901,721.000 549.804,721.000 550.583 C 721.000 553.646,733.729 551.610,752.962 545.472 C 757.066 544.162,760.599 543.265,760.812 543.479 C 761.025 543.692,759.484 545.584,757.386 547.683 C 753.247 551.826,754.432 551.567,730.283 553.606 C 726.037 553.964,722.595 554.783,721.920 555.596 C 720.116 557.770,723.098 558.354,732.326 557.636 C 755.145 555.861,761.000 554.650,761.000 551.705 C 761.000 551.032,761.900 549.919,763.000 549.232 C 766.083 547.307,765.764 541.305,762.500 539.818 L 759.999 538.679 762.854 536.942 C 768.639 533.425,770.161 529.228,770.739 515.208 C 771.054 507.542,771.789 501.508,772.591 500.000 L 773.920 497.500 773.950 501.000 C 774.066 514.664,769.459 546.278,766.525 551.952 C 764.942 555.014,761.627 556.743,754.897 558.020 C 745.054 559.886,706.261 561.978,672.500 562.462 C 653.250 562.738,619.449 563.251,597.386 563.603 L 557.272 564.242 556.023 557.371 C 555.336 553.592,554.064 549.938,553.196 549.250 C 552.328 548.563,549.341 547.940,546.559 547.866 L 541.500 547.733 546.208 547.075 C 551.259 546.370,553.129 545.316,551.317 544.196 C 550.697 543.813,509.985 543.356,460.845 543.180 C 371.934 542.861,309.591 544.029,301.500 546.164 C 299.300 546.744,292.236 547.577,285.803 548.015 C 279.370 548.452,272.620 549.272,270.803 549.837 C 268.986 550.401,263.758 551.168,259.186 551.541 C 254.613 551.914,248.538 553.130,245.686 554.242 C 242.573 555.457,236.302 556.602,230.000 557.108 C 198.150 559.665,191.799 560.218,184.526 561.068 C 180.141 561.581,174.291 561.943,171.526 561.873 L 166.500 561.746 173.000 560.862 C 176.575 560.375,185.800 559.301,193.500 558.474 C 215.909 556.068,229.116 554.221,234.750 552.705 C 237.637 551.928,240.000 551.677,240.000 552.146 C 240.000 553.514,243.367 553.132,245.697 551.499 C 246.876 550.674,248.576 547.781,249.477 545.071 C 251.037 540.371,251.022 539.964,249.147 536.289 C 245.341 528.827,240.679 527.781,208.813 527.241 L 182.126 526.789 175.200 517.645 C 171.390 512.615,167.099 506.700,165.662 504.500 C 164.226 502.300,160.586 497.125,157.574 493.000 C 154.561 488.875,150.322 483.007,148.153 479.960 C 145.985 476.913,143.488 473.820,142.605 473.087 C 141.722 472.355,141.000 471.312,141.000 470.771 C 141.000 470.229,139.200 467.526,137.000 464.763 C 134.800 461.999,133.000 459.348,133.000 458.869 C 133.000 457.939,129.677 457.657,128.819 458.514 C 128.537 458.797,129.403 461.322,130.745 464.125 C 132.087 466.929,134.030 471.679,135.063 474.682 C 136.999 480.309,142.462 489.977,145.696 493.500 C 146.706 494.600,149.618 498.425,152.168 502.000 C 154.717 505.575,162.248 513.969,168.902 520.653 C 175.556 527.338,181.000 533.044,181.000 533.334 C 181.000 533.623,179.615 533.463,177.922 532.978 C 175.826 532.376,168.615 525.698,155.324 512.047 C 144.588 501.021,135.174 492.000,134.402 492.000 C 129.895 492.000,137.718 502.336,160.326 526.250 L 171.433 538.000 188.467 537.986 C 206.196 537.972,210.336 537.512,209.710 535.623 C 209.472 534.903,204.617 534.320,196.203 534.000 C 185.348 533.587,183.216 533.259,183.926 532.115 C 185.264 529.958,230.411 531.137,238.000 533.528 C 243.181 535.160,243.355 535.317,241.000 536.243 C 239.625 536.783,236.772 537.937,234.659 538.806 C 230.347 540.580,222.084 541.033,222.012 539.500 C 221.986 538.950,223.885 538.373,226.232 538.218 C 232.722 537.789,233.916 537.164,231.559 535.429 C 228.651 533.288,222.386 533.614,219.968 536.032 C 217.633 538.367,212.353 539.506,199.201 540.510 C 191.157 541.124,189.707 541.517,188.461 543.420 C 187.668 544.629,185.440 546.239,183.510 546.996 C 181.579 547.754,180.000 548.956,180.000 549.668 C 180.000 551.279,184.126 552.382,187.763 551.742 C 197.470 550.035,206.981 547.264,209.890 545.295 C 211.754 544.033,214.146 543.000,215.205 543.000 C 216.265 543.000,218.114 542.485,219.316 541.854 L 221.500 540.709 219.500 542.968 L 217.500 545.227 225.500 544.857 C 231.314 544.589,234.670 543.875,237.781 542.244 C 240.135 541.010,242.298 540.000,242.587 540.000 C 243.809 540.000,239.483 545.931,237.581 546.863 C 232.995 549.111,219.697 551.296,194.500 553.941 C 158.705 557.697,154.560 557.821,151.384 555.228 C 150.221 554.277,146.444 549.900,142.990 545.500 C 134.831 535.104,121.746 520.092,110.671 508.420 C 101.400 498.650,90.171 485.108,88.091 481.189 C 87.271 479.644,86.142 478.982,84.682 479.190 C 82.851 479.451,82.544 480.063,82.771 483.001 C 82.921 484.925,83.933 487.719,85.021 489.210 C 87.604 492.747,87.519 493.148,84.435 491.975 C 83.024 491.439,80.436 491.000,78.685 491.000 C 76.933 491.000,72.349 490.319,68.500 489.488 C 60.199 487.694,41.741 484.478,34.000 483.477 C 22.949 482.048,19.855 478.443,22.000 469.499 C 22.729 466.461,23.882 463.513,24.562 462.949 C 26.757 461.127,58.711 465.064,70.500 468.609 C 78.945 471.148,100.344 471.161,107.751 468.632 C 111.717 467.277,113.151 466.246,113.610 464.419 C 113.944 463.089,114.618 462.000,115.108 462.000 C 115.599 462.000,116.000 460.875,116.000 459.500 C 116.000 457.721,115.459 457.000,114.122 457.000 C 111.678 457.000,109.354 459.605,111.208 460.266 C 114.217 461.338,110.618 461.470,96.000 460.824 C 79.396 460.090,60.320 457.982,58.208 456.647 C 57.051 455.915,51.247 455.025,36.751 453.354 C 31.926 452.798,31.054 451.000,35.610 451.000 C 39.417 451.000,41.000 446.062,41.000 434.187 C 41.000 420.793,41.547 420.267,53.138 422.517 C 57.737 423.410,63.197 424.784,65.270 425.570 C 67.344 426.357,70.326 427.000,71.898 427.000 C 73.470 427.000,76.351 427.667,78.302 428.482 C 86.057 431.722,98.750 432.140,139.478 430.497 C 177.469 428.964,184.899 428.165,188.000 425.275 C 189.328 424.038,189.286 423.719,187.636 422.496 C 186.260 421.475,183.644 421.246,177.636 421.618 C 173.161 421.896,159.600 422.484,147.500 422.924 C 129.555 423.577,124.885 424.048,122.163 425.479 C 118.409 427.453,112.142 427.005,110.835 424.670 C 110.284 423.685,106.898 423.081,99.278 422.609 C 93.350 422.242,86.475 421.517,84.000 420.998 C 70.175 418.099,61.762 417.131,59.994 418.236 C 58.635 419.085,57.184 419.072,54.223 418.185 C 46.755 415.948,38.968 417.201,37.441 420.885 C 37.073 421.773,36.486 427.804,36.136 434.287 C 35.667 442.988,35.120 446.309,34.048 446.971 C 30.396 449.227,30.094 444.624,32.976 430.618 C 35.090 420.341,37.910 413.632,40.539 412.623 C 41.433 412.281,46.402 412.000,51.582 412.000 C 59.156 412.000,61.000 412.285,61.000 413.455 C 61.000 415.997,67.163 416.261,97.253 415.007 C 125.520 413.828,135.055 413.975,166.000 416.067 C 182.263 417.166,195.000 419.594,195.000 421.594 C 195.000 422.306,192.720 424.827,189.933 427.195 C 184.038 432.204,182.000 435.571,182.000 440.301 C 182.000 448.342,184.473 451.016,193.250 452.470 C 195.313 452.811,197.000 453.556,197.000 454.124 C 197.000 455.245,184.574 454.798,179.750 453.504 C 177.267 452.838,177.000 453.019,177.000 455.363 C 177.000 459.196,183.684 462.436,189.926 461.630 C 209.543 459.096,247.009 450.306,255.200 446.316 C 256.686 445.592,259.416 445.000,261.269 445.000 C 264.203 445.000,265.855 446.236,274.069 454.579 C 283.865 464.528,290.735 470.000,293.430 470.000 C 294.429 470.000,295.000 470.890,295.000 472.445 C 295.000 476.324,329.204 512.000,332.923 512.000 C 333.855 512.000,335.491 511.339,336.559 510.532 C 338.152 509.327,343.355 509.058,365.595 509.032 C 396.802 508.995,395.378 509.435,396.472 499.500 C 397.805 487.387,398.237 412.853,397.039 401.500 C 395.481 386.724,395.422 386.513,392.477 385.171 C 388.445 383.334,351.192 383.598,344.615 385.510 C 338.494 387.289,332.533 392.597,329.986 398.536 C 327.816 403.594,324.167 418.001,322.397 428.500 C 319.076 448.189,318.130 452.888,317.100 454.813 C 316.495 455.944,316.000 458.627,316.000 460.775 C 316.000 462.924,315.330 466.891,314.511 469.591 C 313.692 472.291,313.017 475.486,313.011 476.691 C 312.992 480.404,311.428 480.111,308.654 475.874 C 305.830 471.560,305.211 466.343,307.104 462.806 C 307.711 461.672,308.572 458.439,309.019 455.622 C 309.465 452.805,310.604 447.575,311.549 444.000 C 315.153 430.376,316.274 426.318,318.041 420.500 C 319.043 417.200,320.170 412.475,320.545 410.000 C 320.919 407.525,321.563 405.050,321.976 404.500 C 322.388 403.950,322.989 401.149,323.312 398.275 C 323.635 395.402,324.590 390.902,325.433 388.275 C 326.276 385.649,327.221 382.205,327.534 380.622 C 327.847 379.039,329.317 376.540,330.801 375.068 C 335.211 370.695,343.259 369.826,376.000 370.186 L 404.500 370.500 404.500 442.500 L 404.500 514.500 370.000 515.000 C 351.025 515.275,334.938 515.864,334.250 516.309 C 333.563 516.754,333.000 518.407,333.000 519.981 C 333.000 525.567,331.824 525.500,429.177 525.500 C 517.758 525.500,517.857 525.498,520.677 523.396 C 523.087 521.599,523.627 520.283,524.367 514.396 C 525.751 503.400,525.528 491.243,523.757 481.000 C 521.117 465.733,519.390 457.808,517.654 453.000 C 516.760 450.525,516.025 447.375,516.019 446.000 C 516.014 444.625,515.372 441.475,514.593 439.000 C 513.813 436.525,512.662 432.475,512.034 430.000 C 511.406 427.525,510.267 423.025,509.503 420.000 C 497.737 373.446,497.054 371.422,491.083 365.430 L 487.667 362.000 471.833 362.000 C 463.125 362.000,428.991 361.516,395.980 360.925 L 335.960 359.850 329.730 363.402 C 326.303 365.355,322.693 368.086,321.708 369.471 C 319.359 372.771,316.922 379.387,315.988 385.000 C 315.576 387.475,314.237 393.100,313.013 397.500 C 309.702 409.398,308.339 414.600,306.067 424.000 C 304.937 428.675,303.560 433.882,303.007 435.571 C 302.453 437.260,301.980 439.510,301.956 440.571 C 301.932 441.632,301.242 444.300,300.423 446.500 C 299.604 448.700,298.456 452.975,297.874 456.000 C 295.549 468.064,295.363 468.660,294.602 466.500 C 294.215 465.400,293.246 463.226,292.449 461.669 C 290.570 457.997,290.587 448.713,292.485 443.000 C 294.351 437.382,300.921 411.216,302.153 404.500 C 302.657 401.750,303.478 398.600,303.978 397.500 C 304.478 396.400,305.188 393.521,305.556 391.102 C 305.925 388.683,306.850 385.210,307.613 383.384 C 308.376 381.558,309.000 378.830,309.000 377.322 C 309.000 375.813,310.012 371.921,311.250 368.672 C 312.973 364.148,314.886 361.505,319.420 357.382 L 325.341 352.000 405.420 352.025 C 481.667 352.048,485.774 352.141,491.232 353.967 C 499.461 356.721,505.000 362.795,505.000 369.064 C 505.000 370.787,505.652 373.616,506.449 375.349 C 507.245 377.082,508.339 380.750,508.879 383.500 C 510.319 390.834,513.469 404.236,516.539 416.089 C 520.061 429.688,520.720 432.422,522.067 439.000 C 522.686 442.025,523.806 445.850,524.556 447.500 C 525.306 449.150,526.371 452.750,526.924 455.500 C 528.090 461.308,530.078 470.383,532.510 481.000 C 533.862 486.905,534.201 492.846,534.102 508.928 C 534.033 520.164,533.720 529.614,533.406 529.928 C 533.092 530.243,504.860 530.837,470.668 531.248 C 436.475 531.659,391.181 532.334,370.013 532.748 C 334.812 533.436,331.498 533.646,331.196 535.214 C 330.979 536.346,331.655 537.086,333.184 537.393 C 341.371 539.034,550.484 541.643,551.428 540.116 C 552.631 538.170,549.310 537.623,533.048 537.086 C 517.672 536.578,517.153 536.502,525.727 536.007 C 539.231 535.227,538.500 536.789,538.500 508.715 L 538.500 485.500 534.652 469.500 C 532.535 460.700,530.433 451.925,529.981 450.000 C 527.376 438.923,511.740 376.681,510.490 372.412 C 509.670 369.614,508.998 366.464,508.995 365.412 C 508.988 362.742,505.096 356.722,501.381 353.635 C 494.410 347.842,493.290 347.761,413.099 347.253 C 372.729 346.998,335.950 347.101,331.369 347.482 C 323.684 348.123,322.665 348.475,318.192 352.036 C 308.874 359.455,308.679 359.961,296.828 407.318 C 290.885 431.068,286.017 452.188,286.011 454.250 C 286.005 456.313,285.663 457.996,285.250 457.991 C 284.837 457.987,280.930 454.344,276.568 449.897 C 267.947 441.110,265.237 439.545,260.260 440.479 C 258.130 440.879,257.000 440.696,257.000 439.952 C 257.000 439.325,258.313 434.467,259.918 429.156 C 263.242 418.158,266.416 405.787,278.494 356.745 C 283.202 337.630,287.438 320.980,287.909 319.745 C 288.875 317.211,298.882 311.463,304.707 310.097 C 306.793 309.608,353.275 309.170,408.000 309.125 C 488.497 309.058,508.474 309.300,512.600 310.391 M505.000 316.881 L 512.500 317.500 512.249 321.000 C 511.921 325.573,509.134 333.000,507.746 333.000 C 507.147 333.000,505.832 332.253,504.824 331.341 C 503.816 330.428,500.855 329.257,498.245 328.738 C 495.635 328.219,452.775 327.359,403.000 326.827 L 312.500 325.859 310.772 323.680 C 309.822 322.481,309.034 320.502,309.022 319.283 C 309.001 317.142,309.387 317.055,320.250 316.747 C 341.401 316.147,497.485 316.260,505.000 316.881 M523.000 326.596 C 523.000 328.573,523.654 331.386,524.454 332.846 C 525.866 335.423,526.558 338.087,529.502 352.271 C 530.275 355.995,531.149 359.433,531.444 359.910 C 531.739 360.387,532.655 363.865,533.479 367.639 C 537.447 385.806,539.070 392.704,539.917 395.000 C 540.425 396.375,541.061 399.439,541.332 401.808 C 541.810 405.982,541.743 406.106,539.174 405.808 C 536.320 405.476,536.079 404.814,533.962 391.500 C 533.438 388.200,532.579 384.600,532.053 383.500 C 531.061 381.423,528.655 372.788,526.898 365.000 C 526.340 362.525,525.490 359.600,525.010 358.500 C 524.530 357.400,523.865 354.475,523.533 352.000 C 523.201 349.525,521.611 344.800,520.001 341.500 L 517.073 335.500 519.171 329.250 C 521.525 322.240,523.000 321.218,523.000 326.596 M190.490 333.619 C 189.063 336.846,187.643 341.514,187.334 343.993 C 187.026 346.472,185.690 350.192,184.366 352.259 C 183.042 354.327,181.675 358.152,181.329 360.759 C 180.744 365.154,176.304 376.637,175.500 375.833 C 174.086 374.420,185.193 339.399,190.077 329.868 C 193.266 323.646,193.591 326.607,190.490 333.619 M571.602 370.201 C 573.052 373.062,575.193 376.774,576.360 378.451 C 582.666 387.509,596.837 406.273,607.212 419.304 C 613.696 427.446,619.000 434.231,619.000 434.381 C 619.000 434.531,617.626 434.452,615.946 434.205 C 613.376 433.828,611.874 432.232,606.461 424.129 C 602.924 418.833,598.795 412.925,597.284 411.000 C 576.627 384.670,565.602 367.732,567.734 365.600 C 568.716 364.617,568.858 364.785,571.602 370.201 M475.688 371.567 C 486.768 374.115,487.873 375.338,490.537 388.000 C 491.842 394.200,494.300 403.543,498.958 420.000 C 500.126 424.125,501.481 429.608,501.970 432.183 C 502.459 434.759,503.340 437.767,503.929 438.868 C 504.518 439.968,505.000 442.219,505.000 443.869 C 505.000 445.520,505.534 448.137,506.186 449.685 C 507.674 453.219,510.646 466.100,512.996 479.203 C 514.249 486.186,514.632 510.168,513.520 511.967 C 513.095 512.655,496.376 513.000,463.441 513.000 L 414.000 513.000 414.000 442.167 C 414.000 403.208,414.300 371.033,414.667 370.667 C 415.033 370.300,427.380 370.000,442.105 370.000 C 462.842 370.000,470.411 370.353,475.688 371.567 M338.500 375.172 C 332.290 376.349,330.816 377.630,333.441 379.567 C 336.307 381.683,394.693 381.683,397.559 379.567 C 400.059 377.722,398.653 376.171,393.372 374.946 C 388.305 373.770,344.950 373.949,338.500 375.172 M421.121 374.942 C 419.262 375.414,417.375 376.393,416.928 377.117 C 414.947 380.322,417.876 380.777,443.281 381.215 C 471.069 381.694,474.608 382.368,479.439 388.110 C 480.906 389.853,482.846 391.000,484.328 391.000 C 489.143 391.000,488.329 386.358,482.525 380.721 C 479.698 377.976,477.521 376.929,472.697 375.993 C 465.206 374.541,425.861 373.739,421.121 374.942 M173.428 381.750 C 166.612 397.730,164.722 405.698,167.250 407.789 C 169.334 409.512,184.268 411.227,193.927 410.853 C 200.365 410.603,202.897 410.828,202.592 411.622 C 202.355 412.239,201.841 414.939,201.451 417.622 C 200.688 422.859,198.819 427.293,196.022 430.500 C 192.132 434.960,190.898 443.125,193.655 446.171 C 195.207 447.886,195.183 448.000,193.266 448.000 C 189.693 448.000,186.825 444.799,186.708 440.682 C 186.613 437.339,187.260 436.306,192.674 431.154 C 199.599 424.564,200.849 421.944,198.659 418.602 C 196.376 415.118,186.789 413.058,165.353 411.446 L 156.206 410.758 159.424 407.932 C 161.719 405.917,163.132 403.347,164.348 398.971 C 166.505 391.214,172.987 378.000,174.636 378.000 C 174.851 378.000,174.307 379.688,173.428 381.750 M426.833 383.665 C 423.434 383.923,420.662 384.703,419.905 385.614 C 418.934 386.784,418.540 400.678,418.189 446.090 C 417.758 501.690,417.834 505.159,419.521 507.023 C 421.237 508.920,422.717 509.000,455.964 509.000 C 482.147 509.000,491.018 508.694,492.256 507.750 C 494.436 506.086,496.705 499.359,498.556 489.074 C 499.773 482.309,499.857 479.157,498.983 473.074 C 497.633 463.678,495.406 452.667,493.002 443.500 C 490.195 432.794,489.887 431.000,490.860 431.000 C 492.158 431.000,493.543 435.159,496.023 446.500 C 497.226 452.000,498.880 459.200,499.700 462.500 C 501.848 471.150,503.946 484.058,504.991 495.052 C 505.490 500.305,506.360 505.817,506.925 507.302 C 508.082 510.347,510.454 510.864,511.443 508.288 C 512.645 505.154,512.118 490.589,510.563 484.000 C 509.720 480.425,509.023 476.128,509.015 474.450 C 509.007 472.773,508.621 470.973,508.158 470.450 C 507.695 469.928,506.752 466.800,506.063 463.500 C 505.373 460.200,504.164 455.250,503.376 452.500 C 497.057 430.447,496.483 429.049,493.051 427.338 C 490.141 425.887,489.445 424.659,488.607 419.500 C 488.249 417.300,486.755 411.077,485.286 405.672 C 483.119 397.701,481.873 395.001,478.691 391.387 C 472.694 384.574,470.185 383.887,450.000 383.538 C 440.375 383.372,429.950 383.429,426.833 383.665 M464.980 388.089 C 474.622 390.157,478.000 395.113,482.481 413.767 C 483.899 419.670,485.691 426.975,486.464 430.000 C 487.237 433.025,488.609 439.100,489.513 443.500 C 490.416 447.900,491.873 454.425,492.749 458.000 C 493.760 462.124,494.371 469.252,494.421 477.500 C 494.487 488.344,494.152 491.457,492.399 496.267 C 491.244 499.439,490.051 502.283,489.747 502.586 C 489.444 502.889,474.302 503.219,456.098 503.319 C 423.887 503.495,423.000 503.448,423.000 501.550 C 423.000 500.033,423.267 499.867,424.200 500.800 C 425.807 502.407,483.172 502.513,486.160 500.914 C 491.972 497.804,494.314 481.575,491.632 463.000 C 489.935 451.249,481.865 414.133,479.376 406.633 C 477.355 400.540,471.244 394.412,465.700 392.919 C 463.172 392.238,454.292 391.950,442.311 392.161 C 424.667 392.471,422.999 392.353,422.999 390.800 C 423.000 389.865,423.788 388.641,424.750 388.080 C 427.110 386.706,458.563 386.713,464.980 388.089 M389.631 389.454 C 391.399 390.692,391.808 392.367,392.383 400.716 C 393.249 413.287,393.101 487.319,392.191 496.410 L 391.500 503.321 369.500 503.645 C 343.782 504.025,336.228 504.566,334.298 506.168 C 333.194 507.084,332.456 506.900,330.869 505.313 L 328.847 503.291 357.673 502.577 C 382.755 501.955,386.713 501.644,388.141 500.181 C 389.607 498.680,389.834 492.962,390.264 446.695 C 390.676 402.408,390.537 394.680,389.302 393.445 C 388.138 392.281,383.937 392.000,367.672 392.000 C 346.274 392.000,342.163 392.590,338.204 396.226 C 335.874 398.366,335.792 398.378,336.810 396.418 C 338.393 393.369,340.680 391.706,345.875 389.828 C 352.262 387.518,386.450 387.226,389.631 389.454 M385.759 446.680 C 386.003 493.838,385.913 496.890,384.259 497.368 C 380.748 498.384,332.096 498.497,331.165 497.492 C 330.660 496.947,328.802 492.833,327.037 488.352 C 322.955 477.988,323.141 472.834,328.490 448.000 C 329.260 444.425,330.095 440.375,330.345 439.000 C 330.596 437.625,331.519 433.897,332.396 430.716 C 333.274 427.535,334.257 421.685,334.581 417.716 C 335.546 405.907,338.727 399.940,345.460 397.315 C 347.482 396.527,354.696 396.192,367.000 396.315 L 385.500 396.500 385.759 446.680 M463.500 397.101 C 470.249 398.941,475.081 405.059,476.488 413.547 C 476.849 415.721,477.532 418.400,478.006 419.500 C 478.481 420.600,479.357 424.514,479.955 428.197 C 480.552 431.881,481.664 437.056,482.427 439.697 C 486.291 453.082,488.326 469.602,487.717 482.642 C 487.371 490.047,486.867 492.378,485.066 494.908 L 482.841 498.031 455.171 497.766 L 427.500 497.500 427.241 447.325 C 426.997 400.155,427.087 397.123,428.741 396.691 C 432.401 395.736,459.672 396.058,463.500 397.101 M47.532 427.948 C 46.597 429.461,48.431 431.550,51.783 432.790 C 58.045 435.106,66.664 437.333,69.366 437.333 C 71.857 437.333,72.035 437.501,70.632 438.527 C 68.149 440.343,68.534 443.207,71.209 442.820 C 72.878 442.578,73.615 441.550,74.221 438.617 C 74.722 436.193,74.632 434.262,73.981 433.478 C 72.890 432.162,71.889 431.862,60.500 429.429 C 56.650 428.607,52.316 427.681,50.868 427.371 C 49.381 427.053,47.931 427.303,47.532 427.948 M246.527 436.956 L 246.500 444.912 240.250 446.456 C 226.182 449.931,205.429 454.632,201.592 455.212 C 200.242 455.416,199.464 454.697,198.929 452.751 L 198.174 450.003 203.337 450.591 C 208.483 451.177,222.251 448.877,235.319 445.249 C 241.720 443.472,242.967 441.988,245.066 433.651 C 245.710 431.093,246.309 429.000,246.396 429.000 C 246.483 429.000,246.542 432.580,246.527 436.956 M554.196 440.328 C 557.161 442.014,558.463 443.684,560.008 447.788 C 562.101 453.343,562.646 457.098,561.121 455.450 C 560.637 454.928,559.683 452.700,559.000 450.500 C 556.429 442.215,547.697 437.186,543.940 441.826 C 542.262 443.898,542.196 443.812,540.614 437.514 C 539.726 433.980,539.000 430.594,539.000 429.990 C 539.000 429.385,541.559 430.975,544.687 433.523 C 547.816 436.071,552.094 439.133,554.196 440.328 M162.500 432.064 C 158.100 432.463,149.662 433.126,143.750 433.538 C 137.838 433.950,133.000 434.657,133.000 435.108 C 133.000 437.269,137.998 437.999,152.684 437.985 C 171.785 437.966,178.892 436.282,178.985 431.750 C 179.002 430.907,174.264 430.997,162.500 432.064 M79.250 434.662 C 78.563 434.940,78.000 436.634,78.000 438.428 C 78.000 441.901,75.494 445.000,72.686 445.000 C 71.774 445.000,68.995 444.456,66.509 443.791 C 62.662 442.762,61.759 442.812,60.444 444.127 C 58.328 446.244,59.835 447.307,68.000 449.459 C 85.292 454.017,85.984 453.972,86.032 448.281 C 86.049 446.202,86.724 443.626,87.532 442.559 C 89.616 439.804,89.352 437.360,86.777 435.557 C 84.585 434.021,81.691 433.677,79.250 434.662 M513.363 454.022 C 520.091 481.973,520.502 484.632,520.469 500.000 C 520.430 518.357,520.092 519.693,515.242 520.653 C 508.835 521.922,342.779 521.665,340.613 520.383 C 339.204 519.550,345.164 519.395,364.125 519.772 C 378.094 520.049,393.496 519.945,398.351 519.541 C 406.987 518.822,407.206 518.739,408.469 515.736 C 409.644 512.940,409.818 512.850,410.413 514.725 C 410.772 515.858,412.064 517.052,413.283 517.378 C 414.502 517.705,437.663 517.979,464.750 517.986 C 512.676 518.000,514.054 517.946,516.000 516.000 C 517.837 514.163,518.000 512.667,518.000 497.610 C 518.000 480.070,517.039 473.070,511.933 453.404 C 509.220 442.954,508.360 438.027,509.439 439.106 C 509.681 439.347,511.446 446.060,513.363 454.022 M322.260 489.500 C 323.114 491.700,324.555 495.300,325.463 497.500 C 327.028 501.291,326.679 501.056,318.807 493.026 C 311.482 485.554,310.766 484.511,312.752 484.206 C 315.518 483.781,316.403 482.179,318.110 474.500 L 319.444 468.500 320.075 477.000 C 320.423 481.675,321.406 487.300,322.260 489.500 M19.541 485.360 C 21.518 488.059,21.991 488.176,34.541 489.083 C 41.669 489.598,50.200 490.644,53.500 491.407 L 59.500 492.795 52.301 492.680 C 45.360 492.570,42.875 493.209,44.382 494.716 C 45.119 495.452,51.166 496.197,70.773 497.966 C 76.973 498.525,84.052 499.488,86.504 500.105 C 88.957 500.723,91.646 500.966,92.482 500.645 C 93.458 500.271,94.000 500.646,94.000 501.698 C 94.000 502.597,94.266 503.067,94.591 502.742 C 96.119 501.215,93.684 498.031,90.537 497.441 C 87.387 496.850,87.286 496.708,88.844 495.059 C 90.421 493.388,90.600 493.395,92.614 495.199 C 93.776 496.240,96.167 499.097,97.926 501.546 L 101.124 506.000 97.612 506.000 C 95.597 506.000,93.756 505.387,93.295 504.562 C 92.225 502.650,71.533 499.781,46.500 498.074 C 39.350 497.586,31.700 496.834,29.500 496.403 L 25.500 495.619 29.888 494.838 C 34.844 493.956,35.476 493.580,34.541 492.067 C 34.179 491.480,30.843 491.000,27.129 491.000 C 20.910 491.000,20.214 490.781,18.329 488.231 C 15.287 484.116,14.771 481.590,15.679 475.240 L 16.500 469.500 17.000 476.036 C 17.336 480.424,18.171 483.488,19.541 485.360 M48.085 474.398 C 47.331 475.306,46.892 476.174,47.107 476.327 C 49.010 477.679,63.281 480.084,70.500 480.269 C 78.910 480.485,79.500 480.369,79.500 478.500 C 79.500 476.752,78.429 476.347,71.000 475.286 C 53.255 472.751,49.570 472.609,48.085 474.398 M93.380 477.452 C 92.152 480.651,98.876 489.591,115.052 506.268 C 132.040 523.783,142.491 535.777,149.257 545.524 C 151.323 548.501,153.952 551.439,155.100 552.053 C 157.554 553.367,162.000 552.506,162.000 550.718 C 162.000 549.055,155.999 540.359,151.844 536.000 C 148.468 532.459,138.915 521.189,122.500 501.380 C 107.570 483.363,100.113 476.000,96.800 476.000 C 95.220 476.000,93.688 476.651,93.380 477.452 M114.518 482.971 C 113.634 484.402,116.717 489.816,121.052 494.442 C 123.142 496.674,126.058 500.277,127.532 502.449 C 137.615 517.316,165.790 548.000,169.358 548.000 C 171.161 548.000,171.832 546.149,171.082 543.243 C 170.762 542.001,165.965 536.151,160.423 530.243 C 154.881 524.334,146.556 514.991,141.923 509.480 C 126.054 490.603,118.064 482.000,116.401 482.000 C 115.695 482.000,114.848 482.437,114.518 482.971 M15.323 492.914 C 16.257 494.829,16.228 495.419,15.183 495.769 C 14.458 496.012,12.658 497.250,11.183 498.519 L 8.500 500.826 8.386 519.972 L 8.272 539.118 11.300 542.146 C 14.972 545.819,16.760 546.533,24.500 547.419 C 27.800 547.798,35.900 549.155,42.500 550.436 C 64.132 554.635,66.722 555.035,76.162 555.640 C 82.004 556.015,89.056 555.726,95.000 554.869 C 105.458 553.362,135.277 553.543,138.247 555.132 C 141.601 556.927,140.113 558.083,135.250 557.461 C 132.637 557.127,113.175 556.738,92.000 556.598 C 52.148 556.335,49.916 556.150,30.000 551.448 C 11.005 546.964,11.063 546.986,8.435 543.120 C 6.065 539.631,6.000 539.029,6.010 520.518 C 6.019 502.260,6.121 501.282,8.560 496.042 C 11.722 489.250,13.274 487.201,13.787 489.140 C 13.984 489.888,14.676 491.586,15.323 492.914 M36.147 501.819 C 45.339 502.873,51.338 503.991,65.000 507.199 C 70.398 508.466,78.791 509.390,88.000 509.730 L 102.500 510.266 105.183 513.463 C 106.658 515.221,111.522 520.449,115.990 525.080 C 120.459 529.711,126.141 536.088,128.618 539.252 L 133.120 545.004 130.310 546.134 C 128.764 546.756,122.100 547.648,115.500 548.117 C 108.900 548.586,101.925 549.406,100.000 549.939 C 94.191 551.550,78.916 552.182,72.000 551.098 C 58.097 548.919,52.259 547.891,46.000 546.518 C 42.425 545.733,36.350 544.590,32.500 543.977 C 17.569 541.600,16.295 541.142,14.583 537.534 C 13.345 534.924,13.000 530.726,13.000 518.252 C 13.000 497.895,11.459 498.989,36.147 501.819 M222.357 507.513 C 222.012 508.411,223.769 511.764,226.679 515.763 C 230.346 520.801,232.266 522.580,234.291 522.816 C 236.119 523.030,237.000 522.668,237.000 521.706 C 237.000 518.490,226.878 506.000,224.272 506.000 C 223.538 506.000,222.676 506.681,222.357 507.513 M23.413 510.367 C 23.088 511.212,23.104 512.359,23.448 512.915 C 24.466 514.563,31.061 515.988,37.691 515.994 C 43.867 516.000,45.479 515.344,44.184 513.352 C 42.846 511.294,39.397 510.235,31.751 509.537 C 25.261 508.945,23.907 509.079,23.413 510.367 M95.473 513.670 C 94.104 515.039,93.925 516.473,94.478 521.641 C 95.099 527.439,95.941 529.606,102.249 541.628 C 104.535 545.986,108.292 547.014,111.370 544.122 C 112.612 542.955,114.351 542.000,115.233 542.000 C 118.287 542.000,120.000 540.776,120.000 538.593 C 120.000 535.281,118.076 534.003,113.050 533.975 C 108.827 533.953,108.370 533.690,106.691 530.321 C 104.867 526.659,105.095 525.944,108.500 524.653 C 109.050 524.445,108.487 523.171,107.250 521.823 C 106.013 520.474,105.000 518.645,105.000 517.758 C 105.000 515.974,100.470 512.000,98.437 512.000 C 97.725 512.000,96.391 512.751,95.473 513.670 M47.650 514.470 C 46.728 516.873,46.788 517.000,48.846 517.000 C 49.862 517.000,52.078 517.691,53.770 518.535 C 55.743 519.520,59.954 520.116,65.498 520.197 C 73.755 520.318,74.123 520.418,73.588 522.412 C 73.280 523.560,72.993 526.075,72.952 528.000 L 72.876 531.500 70.802 527.376 L 68.728 523.251 61.211 522.570 C 57.077 522.195,52.413 521.633,50.847 521.319 C 49.099 520.970,48.000 521.174,48.000 521.849 C 48.000 523.572,53.186 525.823,58.901 526.581 C 65.537 527.462,67.807 529.398,68.184 534.500 L 68.479 538.500 63.990 538.320 C 61.520 538.221,56.686 537.829,53.248 537.450 C 47.357 536.799,44.000 537.697,44.000 539.922 C 44.000 541.211,50.602 542.974,63.390 545.098 C 74.140 546.884,76.387 547.010,77.150 545.866 C 77.656 545.107,77.779 540.043,77.425 534.460 C 76.886 525.943,77.033 524.217,78.395 523.087 C 80.294 521.511,80.519 517.439,78.768 516.356 C 78.090 515.937,73.477 515.249,68.518 514.826 C 63.558 514.403,56.980 513.769,53.900 513.417 C 49.187 512.879,48.196 513.046,47.650 514.470 M317.500 517.907 C 315.300 518.878,310.350 520.452,306.500 521.404 C 302.650 522.357,296.575 523.972,293.000 524.994 C 286.940 526.725,282.813 527.725,272.300 530.009 C 269.989 530.511,267.289 531.340,266.300 531.853 C 265.310 532.365,263.262 533.274,261.750 533.871 C 260.007 534.559,259.000 535.702,259.000 536.992 C 259.000 538.111,258.455 539.901,257.788 540.968 C 255.968 543.882,257.339 544.388,263.719 543.155 C 266.899 542.541,273.416 541.603,278.202 541.070 C 286.968 540.094,293.569 537.729,292.474 535.957 C 292.148 535.431,291.009 535.000,289.941 535.000 C 288.873 535.000,288.000 534.522,288.000 533.939 C 288.000 533.255,289.531 533.107,292.307 533.523 C 295.572 534.013,296.928 533.792,297.908 532.611 C 299.413 530.798,302.194 530.289,314.500 529.573 C 325.857 528.913,322.848 530.500,309.003 532.472 C 298.042 534.033,296.000 534.683,296.000 536.607 C 296.000 539.695,319.545 537.264,323.814 533.735 C 324.556 533.122,324.886 531.681,324.571 530.428 C 324.210 528.987,324.538 528.008,325.507 527.636 C 327.348 526.929,327.571 518.971,325.800 517.200 C 324.215 515.615,322.328 515.776,317.500 517.907 " stroke="none" fill="#000000" fill-rule="evenodd"/></svg>