<?xml version="1.0" encoding="iso-8859-1"?>
<!-- Uploaded to: SVG Repo, www.svgrepo.com, Generator: SVG Repo Mixer Tools -->
<!DOCTYPE svg PUBLIC "-//W3C//DTD SVG 1.1//EN" "http://www.w3.org/Graphics/SVG/1.1/DTD/svg11.dtd">
<svg fill="#000000" height="800px" width="800px" version="1.1" id="Capa_1" xmlns="http://www.w3.org/2000/svg" xmlns:xlink="http://www.w3.org/1999/xlink" 
	 viewBox="0 0 297 297" xml:space="preserve">
<path d="M286.579,103.488h-30.203L190.39,37.502c-4.07-4.07-10.667-4.07-14.738,0c-4.069,4.068-4.069,10.668,0,14.738l51.249,51.248
	h-24.488L161.81,64.26c-3.59-3.471-8.316-5.381-13.31-5.381c-4.993,0-9.72,1.91-13.31,5.381l-40.602,39.228H70.1l51.251-51.248
	c4.069-4.07,4.069-10.67,0-14.738c-4.07-4.068-10.667-4.07-14.738,0l-65.988,65.986H10.421C4.666,103.488,0,108.154,0,113.908
	c0,5.756,4.666,10.422,10.421,10.422h10.606v97.396c0,22.51,18.315,40.824,40.825,40.824h173.297
	c22.51,0,40.823-18.315,40.823-40.824V124.33h10.606c5.755,0,10.421-4.666,10.421-10.422
	C297,108.154,292.334,103.488,286.579,103.488z M208.618,138.529c-0.06,0-0.113,0-0.173,0h-26.248c-4.604,0-8.337,3.732-8.337,8.338
	v69.563c0,1.367-1.113,2.48-2.48,2.48h-45.76c-1.367,0-2.48-1.113-2.48-2.48v-69.563c0-4.605-3.733-8.338-8.337-8.338H88.455
	c-1.017,0-1.921-0.609-2.301-1.551c-0.381-0.941-0.155-2.008,0.576-2.715l31.854-30.775l0,0l28.192-27.238
	c0.596-0.576,1.266-0.697,1.724-0.697s1.128,0.121,1.724,0.697l59.645,57.627c0.104,0.1,0.211,0.199,0.32,0.293
	c0.321,0.279,0.858,0.895,0.858,1.879C211.048,137.398,209.963,138.5,208.618,138.529z"/>
</svg>