<?xml version="1.0" ?>
<!-- Uploaded to: SVG Repo, www.svgrepo.com, Generator: SVG Repo Mixer Tools -->
<svg fill="#000000" width="800px" height="800px" viewBox="0 0 512 512" xmlns="http://www.w3.org/2000/svg">
<g id="School_backpack">
<path d="M453.7051,67.2528,411.4441,55.965a13.0954,13.0954,0,0,0-16.1008,9.2744l-18.724,69.9135a113.0361,113.0361,0,0,1,28.5251,74.9v30.7125l14.6118,3.9371,10.9375-40.9494-8.4873-2.2751a13.138,13.138,0,1,1,6.8253-25.3741l8.4872,2.274,10.9375-40.9505-18.551-4.987a13.1273,13.1273,0,1,1,6.7377-25.3752l18.6386,4.9881,7.699-28.7A13.2027,13.2027,0,0,0,453.7051,67.2528Z"/>
<path d="M378.8986,297.5737h-.0042V210.0524a87.48,87.48,0,0,0-74.4519-86.42c.03-.3557.1068-.6964.1068-1.06V96.3483a56.9007,56.9007,0,1,0-113.8013,0v26.2243c0,.3621.0769.7029.1068,1.0585a87.4794,87.4794,0,0,0-74.46,86.4213v87.5213a61.25,61.25,0,0,0-61.2458,61.25v26.2735a34.9753,34.9753,0,0,0,34.9765,34.9765h26.2693c-3.04,27.31,15.242,52.41,43.75,52.4787h175c28.4631-.0577,46.82-25.18,43.75-52.4787,0,.0043,26.2756-.0021,26.2777,0a34.9767,34.9767,0,0,0,34.9765-34.9765V358.8237A61.25,61.25,0,0,0,378.8986,297.5737ZM216.998,96.3483c1.0638-40.4239,60.246-40.4036,61.3013.001v26.2031H216.998ZM182.0194,214.4274h131.25c17.2158.2648,17.2863,25.9722,0,26.25h-131.25C164.8013,240.4146,164.733,214.7051,182.0194,214.4274Zm157.5,170.7125a48.1363,48.1363,0,0,1-48.125,48.0375h-87.5a48.1348,48.1348,0,0,1-48.125-48.0375V323.8024a48.21,48.21,0,0,1,48.125-48.125h87.5a48.211,48.211,0,0,1,48.125,48.125Z"/>
<path d="M313.2694,354.4274h-131.25V385.14a21.8638,21.8638,0,0,0,21.875,21.7875h87.5a21.698,21.698,0,0,0,13.68-4.9283l-.0321.1153a16.0935,16.0935,0,0,0,1.207-1.082c.2478-.2318.517-.4379.7562-.68a16.5356,16.5356,0,0,0,2.461-2.9725c.0384-.0577.0769-.1143.1153-.172a18.8554,18.8554,0,0,0,1.2668-2.3221,21.4287,21.4287,0,0,0,2.42-9.7455v-1.4312c.2371-4.1668.0448-8.404,0-12.2193Z"/>
<path d="M291.3944,301.9274h-87.5c-14.0778-.1175-23.5157,12.796-21.875,26.25h131.25C314.91,314.7223,305.47,301.81,291.3944,301.9274Z"/>
<path d="M90.1444,275.327c.1367-5.2423-.3525-70.79.35-74.0246l-40.6888,10.85L69.3182,285.128A87.349,87.349,0,0,1,90.1444,275.327Z"/>
<path d="M69.4058,139.0024a7.9739,7.9739,0,0,0-14.0863,3.763L48.5819,185.29l47.95-12.7757Z"/>
</g>
</svg>