<?xml version="1.0" encoding="utf-8"?><!-- Uploaded to: SVG Repo, www.svgrepo.com, Generator: SVG Repo Mixer Tools -->
<svg fill="#000000" width="800px" height="800px" viewBox="0 0 1024 1024" xmlns="http://www.w3.org/2000/svg"><path d="M225.939 901.631H861.73c11.311 0 20.48-9.169 20.48-20.48s-9.169-20.48-20.48-20.48H225.939c-11.311 0-20.48 9.169-20.48 20.48s9.169 20.48 20.48 20.48z"/><path d="M858.04 980.188h-643c-16.962 0-30.72-13.758-30.72-30.72V71.675c0-16.962 13.758-30.72 30.72-30.72h591.8c16.962 0 30.72 13.758 30.72 30.72V678.2c0 11.311 9.169 20.48 20.48 20.48s20.48-9.169 20.48-20.48V71.675c0-39.583-32.097-71.68-71.68-71.68h-591.8c-39.583 0-71.68 32.097-71.68 71.68v877.793c0 39.583 32.097 71.68 71.68 71.68h643c11.311 0 20.48-9.169 20.48-20.48s-9.169-20.48-20.48-20.48z"/><path d="M837.635 529.742v179.937c0 16.968-13.754 30.72-30.72 30.72h-438.17v40.96h438.17c39.586 0 71.68-32.089 71.68-71.68V529.742h-40.96z"/><path d="M184.32 946.998v-134.84c0-16.962 13.758-30.72 30.72-30.72h360.346v-40.96H215.04c-39.583 0-71.68 32.097-71.68 71.68v134.84h40.96zm454.028-592.719c45.968 15.878 77.445 59.308 77.445 108.734 0 63.506-51.486 114.995-114.995 114.995-42.469 0-80.836-23.205-100.9-59.78-5.44-9.917-17.889-13.546-27.806-8.106s-13.546 17.889-8.106 27.806c27.186 49.559 79.238 81.04 136.811 81.04 86.131 0 155.955-69.828 155.955-155.955 0-67.028-42.677-125.911-105.032-147.45-10.691-3.693-22.351 1.98-26.044 12.671s1.98 22.351 12.671 26.044z"/><path d="M542.911 319.711c0-63.513-51.482-114.995-114.995-114.995s-114.995 51.482-114.995 114.995c0 63.513 51.482 114.995 114.995 114.995s114.995-51.482 114.995-114.995zm40.96 0c0 86.134-69.821 155.955-155.955 155.955s-155.955-69.821-155.955-155.955c0-86.134 69.821-155.955 155.955-155.955s155.955 69.821 155.955 155.955z"/></svg>