<?xml version="1.0" encoding="iso-8859-1"?>
<!-- Uploaded to: SVG Repo, www.svgrepo.com, Generator: SVG Repo Mixer Tools -->
<!DOCTYPE svg PUBLIC "-//W3C//DTD SVG 1.1//EN" "http://www.w3.org/Graphics/SVG/1.1/DTD/svg11.dtd">
<svg fill="#000000" version="1.1" id="Capa_1" xmlns="http://www.w3.org/2000/svg" xmlns:xlink="http://www.w3.org/1999/xlink" 
	 width="800px" height="800px" viewBox="0 0 30.745 30.744"
	 xml:space="preserve">
<g>
	<path d="M30.744,21.611l-5.925-5.924l5.35-5.348c0.189-0.188,0.322-0.426,0.385-0.686c0.036-0.15,0.85-3.704-2.432-6.987
		c-2.193-2.193-4.503-2.521-5.686-2.521c-0.72,0-1.194,0.114-1.283,0.139c-0.25,0.064-0.478,0.195-0.66,0.378l-5.349,5.349L9.131,0
		L0,9.131l6.012,6.013l-3.15,3.149c-0.225,0.225-0.37,0.518-0.412,0.831l-1.176,8.667c-0.061,0.445,0.088,0.895,0.404,1.215
		c0.275,0.279,0.648,0.434,1.036,0.434c0.057,0,0.115-0.002,0.172-0.01l8.798-1.046c0.323-0.038,0.625-0.185,0.855-0.416l3.15-3.149
		l5.924,5.926L30.744,21.611z M22.205,3.059c0.067-0.005,0.146-0.008,0.229-0.008c0.896,0,2.252,0.29,3.633,1.67
		c1.613,1.613,1.733,3.227,1.699,3.91l-1.996,1.996L20.203,5.06L22.205,3.059z M4.109,9.131L9.131,4.11l3.957,3.957l-5.021,5.021
		L4.109,9.131z M10.839,25.559l-6.434,0.764l0.857-6.321l0.095-0.097l5.567,5.567L10.839,25.559z M11.61,24.787L6.042,19.22
		L19.518,5.746l5.567,5.566L11.61,24.787z M22.764,17.742l3.87,3.869l-5.022,5.022l-3.869-3.87L22.764,17.742z"/>
</g>
</svg>