<?xml version="1.0" encoding="utf-8"?>

<!DOCTYPE svg PUBLIC "-//W3C//DTD SVG 1.1//EN" "http://www.w3.org/Graphics/SVG/1.1/DTD/svg11.dtd">
<!-- Uploaded to: SVG Repo, www.svgrepo.com, Generator: SVG Repo Mixer Tools -->
<svg height="800px" width="800px" version="1.1" id="_x32_" xmlns="http://www.w3.org/2000/svg" xmlns:xlink="http://www.w3.org/1999/xlink" 
	 viewBox="0 0 512 512"  xml:space="preserve">
<style type="text/css">
	.st0{fill:#000000;}
</style>
<g>
	<path class="st0" d="M234.683,103.486c28.583,0,51.747-23.164,51.747-51.742C286.43,23.165,263.266,0,234.683,0
		c-28.578,0-51.747,23.165-51.747,51.743C182.936,80.322,206.104,103.486,234.683,103.486z"/>
	<path class="st0" d="M346.194,405.297l-23.056-106.532L312.5,186.72c-6.905-74.294-78.897-68.97-114.04-34.555l-58.407,59.888
		l-56.13,20.688c-10.63,3.917-16.342,15.473-12.981,26.294l0.264,0.828c3.3,10.638,14.264,16.93,25.118,14.43l45.745-10.564
		c11.408-2.632,22.24-7.326,31.94-13.867l31.811-21.393l11.239,85.412c0.82,6.259-6.549,32.602-8.229,38.712L166.95,476.181
		c-3.635,13.113,4.019,26.699,17.12,30.408l0.915,0.248c12.389,3.494,25.391-3.088,29.895-15.143l58.56-119.57l16.259,52.132
		c2.389,4.76,5.547,9.082,9.356,12.798l65.94,68.068c9.032,8.809,23.313,9.207,32.8,0.894l1.143-0.994
		c4.86-4.255,7.823-10.282,8.205-16.731c0.389-6.45-1.822-12.791-6.143-17.584L346.194,405.297z"/>
	<path class="st0" d="M442.021,286.323l-6.284-68.019c-3.85-41.642-40.459-72.448-82.142-69.136l-16.028,1.275l13.222,143.141
		L442.021,286.323z"/>
</g>
</svg>