<?xml version="1.0" encoding="iso-8859-1"?>
<!-- Uploaded to: SVG Repo, www.svgrepo.com, Generator: SVG Repo Mixer Tools -->
<svg fill="#000000" version="1.1" id="Layer_1" xmlns="http://www.w3.org/2000/svg" xmlns:xlink="http://www.w3.org/1999/xlink" 
	 viewBox="0 0 512 512" xml:space="preserve">
<g>
	<g>
		<path d="M353.821,222.879v253.108h0c0,19.857,16.156,36.013,36.013,36.013s36.013-16.156,36.013-36.013V222.879H353.821z"/>
	</g>
</g>
<g>
	<g>
		<polygon points="303.126,23.502 303.126,0 161.635,0 161.635,512 303.126,512 303.126,488.498 233.548,488.498 233.548,458.081 
			303.126,458.081 303.126,434.176 204.483,434.176 204.483,403.758 303.126,403.758 303.126,379.853 233.548,379.853 
			233.548,349.435 303.126,349.435 303.126,325.531 204.483,325.531 204.483,295.113 303.126,295.113 303.126,271.209 
			233.548,271.209 233.548,240.791 303.126,240.791 303.126,216.886 204.483,216.886 204.483,186.468 303.126,186.468 
			303.126,162.564 233.548,162.564 233.548,132.146 303.126,132.146 303.126,108.242 204.483,108.242 204.483,77.824 
			303.126,77.824 303.126,53.919 233.548,53.919 233.548,23.502 		"/>
	</g>
</g>
<g>
	<g>
		<rect x="38.914" y="397.948" width="72.028" height="21.292"/>
	</g>
</g>
<g>
	<g>
		<rect x="38.914" y="101.208" width="72.028" height="266.323"/>
	</g>
</g>
<g>
	<g>
		<polygon points="74.928,0 38.915,36.635 38.915,70.793 110.94,70.793 110.94,36.635 		"/>
	</g>
</g>
<g>
	<g>
		<path d="M38.915,449.656v26.331c0,19.857,16.156,36.013,36.013,36.013c19.857,0,36.013-16.156,36.013-36.013v-26.331H38.915z"/>
	</g>
</g>
<g>
	<g>
		<path d="M442.669,44.921v25.348h-16.822V36.013C425.847,16.156,409.691,0,389.834,0c-19.857,0-36.013,16.156-36.013,36.013v156.45
			h72.026v-91.777h16.822v142.81h30.417V44.921H442.669z"/>
	</g>
</g>
</svg>